<?xml version="1.0" standalone="no"?>
<!DOCTYPE svg PUBLIC "-//W3C//DTD SVG 1.1//EN" "http://www.w3.org/Graphics/SVG/1.1/DTD/svg11.dtd" >
<svg xmlns="http://www.w3.org/2000/svg">
<metadata></metadata>
<defs>
<font id="ginesocond_demi" horiz-adv-x="1075" >
<font-face units-per-em="2048" ascent="1638" descent="-410" />
<missing-glyph horiz-adv-x="337" />
<glyph horiz-adv-x="0" />
<glyph horiz-adv-x="682" />
<glyph horiz-adv-x="0" />
<glyph horiz-adv-x="0" />
<glyph unicode="&#xd;" horiz-adv-x="681" />
<glyph unicode=" "  horiz-adv-x="337" />
<glyph unicode="&#x09;" horiz-adv-x="337" />
<glyph unicode="&#xa0;" horiz-adv-x="337" />
<glyph unicode="!" horiz-adv-x="458" d="M104 967v508h250v-508l-55 -586h-141zM109 0v289h239v-289h-239z" />
<glyph unicode="&#x22;" horiz-adv-x="694" d="M61 1475h269l-64 -506h-141zM365 1475h268l-64 -506h-141z" />
<glyph unicode="#" horiz-adv-x="1101" d="M53 410v153h211l39 338h-199v154h215l48 420h159l-45 -420h215l47 420h160l-45 -420h189v-154h-205l-37 -338h194v-153h-211l-43 -410h-165l45 410h-213l-43 -410h-166l45 410h-195zM428 563h213l39 338h-215z" />
<glyph unicode="$" horiz-adv-x="946" d="M74 279v182h227v-103q0 -98 31 -132t102 -33h72q78 -1 114 33t35 143v92q0 135 -137 168l-149 37q-150 38 -213 120t-64 269v82q0 326 301 354v188h70v-184h20l25 -2v186h70v-192q126 -20 198 -95t72 -196v-156h-227v101q0 154 -134 153h-34q-72 0 -101 -38t-28 -136v-55 q0 -94 22 -127t96 -53l136 -37q178 -47 244 -132t65 -265v-84q0 -358 -309 -383v-189h-70v185h-45v-185h-70v185q-159 6 -239 78t-80 221z" />
<glyph unicode="%" horiz-adv-x="1964" d="M76 782v471q0 113 82 179t222 66t222 -66t82 -179v-471q0 -112 -82 -178t-222 -66t-222 66t-82 178zM262 825q0 -114 118 -114t118 114v385q0 115 -118 115t-118 -115v-385zM539 -41l618 1557h197l-613 -1557h-202zM1212 221v471q0 112 83 178t223 66t223 -66 q82 -66 82 -178v-471q0 -113 -82 -179t-222 -65q-140 0 -224 66q-83 66 -83 178zM1401 264q0 -114 117 -114t116 114v385q0 115 -116 115t-117 -115v-385z" />
<glyph unicode="&#x26;" horiz-adv-x="1165" d="M84 367v153q0 203 172 264q-150 70 -150 250v123q0 166 96 252t275 86h49q180 0 280 -76t99 -215v-164h-221v103q0 79 -37 115t-119 36h-47q-79 0 -113 -37t-34 -124v-101q0 -172 174 -172h618v-182h-192v-363q0 -167 -95 -251t-270 -84h-92q-197 0 -295 91t-98 296z M303 352q0 -172 170 -172h90q152 0 152 162v336h-238q-174 0 -174 -162v-164z" />
<glyph unicode="'" horiz-adv-x="391" d="M61 1475h269l-64 -506h-141z" />
<glyph unicode="(" horiz-adv-x="606" d="M70 580q0 508 268 948h252q-136 -260 -200 -466t-64 -482t64 -482t200 -467h-252q-268 441 -268 949z" />
<glyph unicode=")" horiz-adv-x="606" d="M16 -369q135 261 200 467t65 482t-65 482t-200 466h252q268 -440 268 -948t-268 -949h-252z" />
<glyph unicode="*" horiz-adv-x="839" d="M72 975l278 110l-276 111l86 164l221 -207l-49 317h176l-51 -317l223 205l88 -162l-281 -111l279 -110l-86 -164l-223 205l51 -316h-176l49 316l-221 -203z" />
<glyph unicode="+" horiz-adv-x="921" d="M59 694v197h306v338h190v-338h305v-197h-305v-340h-190v340h-306z" />
<glyph unicode="," horiz-adv-x="442" d="M51 -217l58 506h266l-174 -506h-150z" />
<glyph unicode="-" horiz-adv-x="825" d="M94 598v199h639v-199h-639z" />
<glyph unicode="." horiz-adv-x="419" d="M90 0v289h240v-289h-240z" />
<glyph unicode="/" horiz-adv-x="1056" d="M29 -49l747 1573h250l-741 -1573h-256z" />
<glyph unicode="0" horiz-adv-x="999" d="M104 299v877q0 152 106 236t290 83q182 1 288 -83t107 -236v-877q-1 -152 -107 -236q-106 -83 -288 -83t-289 83q-106 84 -107 236zM330 344q0 -76 43 -117t127 -41t127 41t43 117v786q0 76 -43 117t-127 41t-127 -41t-43 -117v-786z" />
<glyph unicode="1" horiz-adv-x="638" d="M53 1098v211l303 166h160v-1475h-229v1212z" />
<glyph unicode="2" horiz-adv-x="921" d="M76 0v100q-14 217 74 372t266 294q61 47 95 81t62 92q29 58 29 126v63q0 166 -127 166h-33q-131 0 -131 -149v-133h-219v184q0 143 93 221t261 78h31q172 0 264 -87t93 -255v-86q0 -156 -69 -258t-257 -240t-209 -370h553v-199h-776z" />
<glyph unicode="3" horiz-adv-x="935" d="M70 279v170h204v-107q0 -151 138 -149h69q152 0 152 172v151q0 162 -148 162h-157v182h133q141 0 141 160v125q0 80 -28 115t-91 34h-32q-72 0 -106 -32t-34 -107v-131h-202v180q0 139 90 215t256 76h30q342 0 342 -338v-123q0 -176 -149 -233q172 -55 172 -281v-153 q0 -207 -91 -297t-274 -90h-79q-170 0 -253 70t-83 229z" />
<glyph unicode="4" horiz-adv-x="905" d="M37 236v108l258 1131h227l-239 -1045h206v172l64 250h164v-422h141v-194h-141v-236h-228v236h-452z" />
<glyph unicode="5" horiz-adv-x="894" d="M68 287v162h219v-78q0 -98 30 -139q31 -40 97 -39h61q63 -1 95 39t32 137v180q0 176 -139 176h-340l16 750h639v-199h-426l-8 -346l121 2q356 6 356 -379v-186q0 -207 -88 -297t-264 -90h-63q-172 0 -255 72t-83 235z" />
<glyph unicode="6" horiz-adv-x="970" d="M106 299v877q0 152 104 236t284 83q180 0 283 -82t104 -229v-148h-230v92q1 154 -157 154t-158 -162v-280q80 63 222 63t233 -78q90 -78 90 -217v-309q-1 -152 -105 -236q-104 -83 -284 -83t-283 83q-102 84 -103 236zM336 354q0 -162 158 -161q158 0 157 161v187 q1 161 -153 161q-162 0 -162 -161v-187z" />
<glyph unicode="7" horiz-adv-x="802" d="M43 1276v199h721v-166l-432 -1309h-230l418 1276h-477z" />
<glyph unicode="8" horiz-adv-x="968" d="M86 299v225q0 182 166 262q-143 72 -143 252v146q0 147 100 229t274 82q175 0 277 -82t102 -229v-146q0 -188 -143 -254q164 -80 164 -260v-225q-1 -152 -107 -236q-106 -83 -292 -83t-291 84q-106 84 -107 235zM317 334q0 -166 167 -166t167 166v196q0 88 -41 128 t-127 40q-166 0 -166 -168v-196zM328 1024q0 -147 156 -147t157 147v133q0 150 -157 150t-156 -150v-133z" />
<glyph unicode="9" horiz-adv-x="970" d="M90 291v147h229v-92q0 -154 158 -153q158 0 158 161v279q-81 -62 -223 -62t-232 78t-90 217v310q0 152 104 236t285 83q179 0 283 -84t104 -235v-877q0 -152 -104 -236q-104 -83 -284 -83t-284 82q-103 82 -104 229zM319 934q0 -162 154 -162q162 0 162 162v186 q0 162 -158 162t-158 -162v-186z" />
<glyph unicode=":" horiz-adv-x="438" d="M102 0v289h240v-289h-240zM102 807v289h240v-289h-240z" />
<glyph unicode=";" horiz-adv-x="483" d="M70 -217l57 506h266l-174 -506h-149zM143 807v289h240v-289h-240z" />
<glyph unicode="&#x3c;" horiz-adv-x="761" d="M45 545v178l399 547h265l-476 -635l476 -635h-265z" />
<glyph unicode="=" horiz-adv-x="839" d="M100 250v199h639v-199h-639zM100 659v199h639v-199h-639z" />
<glyph unicode="&#x3e;" horiz-adv-x="761" d="M53 0l475 635l-475 635h264l400 -547v-178l-400 -545h-264z" />
<glyph unicode="?" horiz-adv-x="921" d="M72 1001v195q0 145 96 222t264 77h33q172 0 267 -77t95 -224v-242q0 -127 -43 -181t-176 -112q-70 -31 -92 -69t-22 -101v-157h-224v215q0 103 38 161t130 96t125 79t33 116v131q0 90 -33 130t-100 38h-33q-68 0 -100 -38t-33 -130v-129h-225zM266 0v289h240v-289h-240z " />
<glyph unicode="@" horiz-adv-x="1445" d="M109 270v904q0 143 91 223t251 80h557q166 0 260 -80t94 -223v-656q0 -100 -71 -154t-205 -54t-195 81q-94 -82 -227 -82t-199 82t-66 209v225q0 129 66 210q65 81 187 81t204 -65v51h182v-565q0 -35 20 -55t53 -21t57 21t24 55v618q0 170 -203 170h-520 q-190 0 -190 -170v-866q0 -170 190 -170h786v-152h-804q-160 0 -251 80t-91 223zM594 623q0 -138 119 -138q92 0 143 74v330q-45 51 -141 51q-121 0 -121 -137v-180z" />
<glyph unicode="A" horiz-adv-x="1060" d="M8 0l385 1475h275l387 -1475h-234l-78 319h-428l-75 -319h-232zM367 530h327l-164 680z" />
<glyph unicode="B" horiz-adv-x="1017" d="M125 0v1475h354q197 0 305 -85t109 -257v-91q0 -166 -156 -231q211 -63 211 -289v-166q0 -178 -112 -267t-314 -89h-397zM356 186h166q92 0 142 52t51 153v121q0 180 -193 180h-166v-506zM356 868h123q180 0 180 183v49q0 188 -180 188h-123v-420z" />
<glyph unicode="C" horiz-adv-x="1019" d="M111 299v877q-1 152 111 236q111 83 297 83h4q189 0 297 -84t108 -235v-234h-219v178q1 162 -183 162t-184 -162v-766q0 -86 45 -124q44 -37 134 -37h5q182 0 183 161v178h219v-233q0 -152 -112 -236q-112 -83 -301 -83t-297 84t-107 235z" />
<glyph unicode="D" horiz-adv-x="1081" d="M125 0v1475h373q254 0 368 -119t113 -357v-524q0 -247 -112 -361t-363 -114h-379zM356 201h148q256 0 256 284v504q0 285 -262 285h-142v-1073z" />
<glyph unicode="E" horiz-adv-x="915" d="M125 0v1475h723v-199h-492v-418h383v-199h-383v-460h492v-199h-723z" />
<glyph unicode="F" horiz-adv-x="882" d="M125 0v1475h723v-199h-492v-479h383v-199h-383v-598h-231z" />
<glyph unicode="G" horiz-adv-x="1050" d="M111 299v877q1 152 115 236q113 83 303 83h5q194 0 307 -84q112 -84 111 -235v-234h-221v178q-1 162 -195 162t-194 -162v-760q0 -88 47 -128q46 -39 145 -39h5q193 0 192 167v199h-192v199h413v-758h-121l-40 86q-95 -106 -283 -106t-293 83q-104 84 -104 236z" />
<glyph unicode="H" horiz-adv-x="1097" d="M125 0v1475h231v-617h383v617h234v-1475h-234v659h-383v-659h-231z" />
<glyph unicode="I" horiz-adv-x="481" d="M125 0v1475h231v-1475h-231z" />
<glyph unicode="J" horiz-adv-x="960" d="M43 299v250h219v-174q0 -182 174 -182t174 190v1092h234v-1094q0 -203 -106 -302t-296 -99t-295 83q-104 84 -104 236z" />
<glyph unicode="K" horiz-adv-x="1001" d="M125 0v1475h231v-674l371 674h248l-395 -719l417 -756h-260l-381 698v-698h-231z" />
<glyph unicode="L" horiz-adv-x="858" d="M125 0v1475h231v-1276h480v-199h-711z" />
<glyph unicode="M" horiz-adv-x="1398" d="M125 0v1475h246l327 -705l330 705h246v-1475h-221v932l4 133l-279 -586h-160l-280 590l6 -137v-932h-219z" />
<glyph unicode="N" horiz-adv-x="1146" d="M125 0v1475h188l502 -963l-2 51v912h209v-1475h-191l-501 965l2 -33v-932h-207z" />
<glyph unicode="O" d="M111 319v836q0 160 113 250q114 90 315 90t313 -89t113 -251v-836q0 -163 -113 -251q-114 -88 -314 -88t-314 90t-113 249zM342 383q0 -100 47 -145t149 -45t148 45q47 45 47 145v709q0 100 -47 145t-148 45q-100 0 -148 -45t-48 -145v-709z" />
<glyph unicode="P" horiz-adv-x="985" d="M125 0v1475h373q225 -1 327 -103t103 -299v-158q0 -180 -102 -274t-328 -94h-142v-547h-231zM356 745h146q195 0 194 205v111q0 215 -190 215h-150v-531z" />
<glyph unicode="Q" d="M111 319v836q0 160 113 250q114 90 315 90t313 -89t113 -251v-836q0 -225 -211 -305l194 -252l-157 -129l-259 347q-198 2 -310 91t-111 248zM342 383q0 -100 47 -145t149 -45t148 45q47 45 47 145v709q0 100 -47 145t-148 45q-100 0 -148 -45t-48 -145v-709z" />
<glyph unicode="R" horiz-adv-x="1013" d="M125 0v1475h346q227 -1 329 -103t103 -299v-158q0 -254 -201 -331l312 -584h-260l-275 547h-123v-547h-231zM356 745h121q195 0 195 205v111q0 215 -193 215h-123v-531z" />
<glyph unicode="S" horiz-adv-x="960" d="M78 279v182h227v-103q0 -98 31 -132q30 -33 98 -33h4h72h4q75 0 110 33t35 137v6v92q0 135 -137 168l-149 37q-150 38 -213 120t-64 269v82q0 176 91 267t266 91h34q169 0 267 -79t98 -220v-156h-227v101q0 153 -131 153h-2h-35q-72 0 -101 -38q-28 -37 -28 -130v-6v-55 q0 -94 22 -127t96 -53l136 -37q178 -47 244 -132q65 -84 65 -260v-5v-84q0 -203 -94 -295t-279 -92h-88q-176 0 -264 70t-88 229z" />
<glyph unicode="T" horiz-adv-x="872" d="M27 1276v199h819v-199h-293v-1276h-231v1276h-295z" />
<glyph unicode="U" horiz-adv-x="1089" d="M117 348v1127h233v-1076q0 -206 193 -206h2q197 0 196 206v1076h232v-1127q0 -172 -115 -270q-116 -98 -314 -98t-313 98t-114 270z" />
<glyph unicode="V" horiz-adv-x="1003" d="M29 1475h229l244 -1186l243 1186h230l-348 -1475h-250z" />
<glyph unicode="W" horiz-adv-x="1511" d="M39 1475h227l164 -1209l217 1209h217l217 -1209l164 1209h228l-246 -1475h-266l-205 1098l-203 -1098h-268z" />
<glyph unicode="X" horiz-adv-x="1005" d="M4 0l346 760l-303 715h250l205 -551l207 551h249l-303 -717l346 -758h-256l-241 600l-242 -600h-258z" />
<glyph unicode="Y" horiz-adv-x="997" d="M16 1475h246l236 -707l237 707h242l-363 -949v-526h-231v520z" />
<glyph unicode="Z" horiz-adv-x="915" d="M41 0v168l543 1108h-510v199h766v-168l-533 -1108h565v-199h-831z" />
<glyph unicode="[" horiz-adv-x="565" d="M117 -276v1751h387v-199h-170v-1354h170v-198h-387z" />
<glyph unicode="\" horiz-adv-x="1056" d="M31 1524h250l747 -1573h-256z" />
<glyph unicode="]" horiz-adv-x="565" d="M61 -78h170v1354h-170v199h388v-1751h-388v198z" />
<glyph unicode="^" horiz-adv-x="1015" d="M45 813l361 657h206l359 -657h-244l-219 461l-217 -461h-246z" />
<glyph unicode="_" horiz-adv-x="1036" d="M74 0h891v-199h-891v199z" />
<glyph unicode="`" horiz-adv-x="716" d="M-29 1466h267l163 -340h-155z" />
<glyph unicode="a" horiz-adv-x="890" d="M61 270v41q0 303 304 303h200v187q0 129 -127 129q-121 0 -121 -129v-64h-211v99q0 143 88 217q88 73 252 73q166 0 254 -74t88 -216v-844h-190l-18 78q-112 -82 -250 -82q-270 0 -269 282zM291 287q0 -119 115 -119q100 0 159 45v229h-145q-129 0 -129 -123v-32z" />
<glyph unicode="b" horiz-adv-x="946" d="M106 -8v1483h226v-443q160 94 254 94q130 0 198 -78t68 -225v-518q0 -151 -71 -235t-203 -84t-246 86l-19 -80h-207zM332 262q89 -67 175 -67h3q121 0 121 170v399q0 154 -113 154q-53 0 -186 -80v-576z" />
<glyph unicode="c" horiz-adv-x="897" d="M88 291v524q0 150 97 231q97 80 273 80t268 -80q93 -80 93 -231v-164h-211v109q0 158 -145 158q-152 0 -152 -158v-414q0 -158 152 -158q145 0 145 158v100h211v-155q0 -150 -93 -231q-93 -80 -268 -80t-273 80q-97 81 -97 231z" />
<glyph unicode="d" horiz-adv-x="937" d="M94 297v526q0 141 72 223q70 80 196 80h6q130 0 238 -59v408h223v-1475h-204l-19 66q-110 -80 -238 -80t-201 85t-73 226zM317 365q0 -170 119 -170q84 0 170 55v606q-84 61 -172 62q-117 0 -117 -154v-399z" />
<glyph unicode="e" horiz-adv-x="911" d="M88 299v508q0 151 96 235t272 84t276 -84q99 -84 99 -235v-344h-520v-121q0 -166 146 -166q152 0 151 166v27h223v-70q0 -152 -99 -236q-99 -83 -275 -83t-273 83q-96 84 -96 236zM311 645h297v119q0 166 -151 166q-146 0 -146 -166v-119z" />
<glyph unicode="f" horiz-adv-x="612" d="M47 924v182h92v131q0 156 83 238q82 81 233 81h4q98 0 145 -18v-197q-41 18 -121 19q-119 0 -118 -133v-121h221v-182h-221v-924h-226v924h-92z" />
<glyph unicode="g" horiz-adv-x="921" d="M94 317v506q0 141 72 223q70 80 198 80h6q132 0 246 -65l13 53h184v-1163q0 -166 -115 -253t-338 -87q-133 0 -254 27v196q98 -27 232 -27q252 0 252 203v64q-104 -68 -227 -68t-196 85t-73 226zM317 385q0 -170 119 -170q78 0 154 45v608q-76 49 -156 50 q-117 0 -117 -154v-379z" />
<glyph unicode="h" horiz-adv-x="923" d="M106 0v1475h226v-424q137 75 252 75t175 -74t60 -210v-842h-223v776q0 141 -104 142q-57 0 -160 -62v-856h-226z" />
<glyph unicode="i" horiz-adv-x="440" d="M98 1270v289h240v-289h-240zM109 0v1106h225v-1106h-225z" />
<glyph unicode="j" horiz-adv-x="452" d="M-59 -186q31 -6 63 -7h2q61 0 88 57q27 58 27 199v1043h223v-1040q0 -248 -71 -352q-70 -103 -245 -103h-3l-84 6v197zM117 1278v289h239v-289h-239z" />
<glyph unicode="k" horiz-adv-x="860" d="M106 0v1475h226v-824l260 455h250l-316 -498l334 -608h-250l-278 526v-526h-226z" />
<glyph unicode="l" horiz-adv-x="487" d="M104 322v1153h224v-1119q0 -170 92 -170q41 0 67 11v-191q-53 -16 -161 -16t-165 78q-56 78 -57 254z" />
<glyph unicode="m" horiz-adv-x="1394" d="M106 0v1114h187l20 -84q101 96 251 96t212 -118q93 118 274 118h3q117 0 178 -78t61 -214v-834h-223v772q0 152 -98 152q-84 0 -160 -70v-854h-223v772q0 152 -99 152q-88 0 -157 -66v-858h-226z" />
<glyph unicode="n" horiz-adv-x="927" d="M106 0v1114h187l18 -76q154 88 274 88t180 -74t60 -210v-842h-225v776q0 141 -102 142q-63 0 -166 -66v-852h-226z" />
<glyph unicode="o" horiz-adv-x="917" d="M88 291v524q0 150 97 231q97 80 275 80t274 -80q97 -80 97 -231v-524q0 -150 -97 -231q-97 -80 -274 -80t-275 80q-97 81 -97 231zM311 346q1 -158 149 -158t148 158v414q0 158 -148 158t-149 -158v-414z" />
<glyph unicode="p" horiz-adv-x="942" d="M106 -369v1483h187l20 -90q174 102 287 102q112 0 180 -78t68 -225v-518q0 -151 -71 -235t-204 -84t-241 84v-439h-226zM332 260q83 -65 171 -65h3q121 0 121 170v399q0 154 -113 154q-51 0 -182 -78v-580z" />
<glyph unicode="q" horiz-adv-x="944" d="M94 297v526q0 141 72 223q70 80 203 80h7q138 0 259 -77l16 65h187v-1483h-226v439q-116 -84 -244 -84t-201 85t-73 226zM317 365q0 -170 119 -170q86 0 176 59v598q-88 66 -178 66q-117 0 -117 -154v-399z" />
<glyph unicode="r" horiz-adv-x="780" d="M106 0v1114h187l16 -98q118 110 254 110h2q190 0 191 -243v-244h-221v201q1 84 -61 84t-142 -80v-844h-226z" />
<glyph unicode="s" horiz-adv-x="868" d="M66 250v119h210v-84q0 -63 37 -86t115 -23t119 25t41 96v59q0 43 -30 67t-101 36l-129 24q-143 25 -194 89q-50 65 -50 229v51q0 135 89 205q89 69 257 69t260 -68t92 -194v-108h-211v86q0 100 -139 100t-139 -100v-41q-1 -63 25 -86t100 -37l117 -25q156 -27 210 -86 t54 -198v-70q0 -174 -94 -247q-93 -72 -274 -72h-5q-360 0 -360 270z" />
<glyph unicode="t" horiz-adv-x="638" d="M37 924v182h110v246h224v-246h209v-182h-209v-574v-5q0 -84 31 -123q32 -40 105 -40t109 19v-191q-61 -20 -167 -20q-301 0 -302 313v621h-110z" />
<glyph unicode="u" horiz-adv-x="935" d="M102 272v834h226v-768q0 -150 102 -150q70 0 174 70v848h223v-1106h-184l-14 76q-164 -96 -285 -96t-181 76t-61 216z" />
<glyph unicode="v" horiz-adv-x="876" d="M27 1106h233l178 -862l180 862h234l-289 -1106h-248z" />
<glyph unicode="w" horiz-adv-x="1320" d="M31 1106h233l133 -856l150 856h225l150 -856l135 856h233l-239 -1106h-242l-150 815l-149 -815h-242z" />
<glyph unicode="x" horiz-adv-x="837" d="M14 0l283 580l-264 526h237l150 -379l151 379h234l-264 -524l282 -582h-233l-172 403l-170 -403h-234z" />
<glyph unicode="y" horiz-adv-x="892" d="M20 1106h248l185 -821l184 821h246l-305 -1073q-74 -254 -169 -338t-241 -84q-66 0 -115 14v193q37 -10 99 -10h1q136 0 193 192h-4z" />
<glyph unicode="z" horiz-adv-x="800" d="M39 0v162l453 762h-416v182h659v-162l-463 -762h482v-182h-715z" />
<glyph unicode="{" horiz-adv-x="593" d="M35 430v197q129 0 129 161v392q0 158 87 236t288 79v-197q-152 0 -152 -153v-375q0 -184 -127 -242q127 -61 127 -241v-449q0 -154 152 -153v-197q-201 0 -288 79t-87 236v465q0 162 -129 162z" />
<glyph unicode="|" horiz-adv-x="456" d="M117 -512v2048h223v-2048h-223z" />
<glyph unicode="}" horiz-adv-x="593" d="M57 -315q152 0 152 153v449q0 180 127 241q-127 58 -127 242v375q0 154 -152 153v197q201 0 288 -79t87 -236v-392q0 -162 129 -161v-197q-129 0 -129 -162v-465q0 -159 -87 -237t-288 -78v197z" />
<glyph unicode="~" horiz-adv-x="1015" d="M86 719q2 160 67 247t181 87q80 0 137 -33t99 -66q42 -32 86 -32t64 33q19 34 21 100h205q-10 -348 -250 -348q-72 -1 -123 33t-95 67t-93 33q-88 0 -94 -121h-205z" />
<glyph unicode="&#xa1;" horiz-adv-x="458" d="M104 0v459l54 622h143l53 -622v-459h-250zM109 1186v289h241v-289h-241z" />
<glyph unicode="&#xa2;" horiz-adv-x="880" d="M80 291v524q0 135 81 214t232 93v209h109v-207q147 -12 228 -92t81 -217v-164h-211v109q0 158 -145 158q-152 0 -152 -158v-414q0 -158 152 -158q145 0 145 158v100h211v-155q0 -137 -81 -217t-228 -92v-248h-109v250q-153 12 -233 91t-80 216z" />
<glyph unicode="&#xa3;" horiz-adv-x="983" d="M84 0v162q121 229 127 379h-127v196h102q-4 14 -25 84q-57 180 -58 340t95 247t277 87h37q184 0 290 -79t105 -220v-147h-225v65q0 96 -39 139t-127 43h-37q-149 0 -149 -171q0 -131 39 -245t47 -143h227v-196h-207q-8 -162 -102 -346h573v-195h-823z" />
<glyph unicode="&#xa4;" horiz-adv-x="1007" d="M57 1057l115 121l104 -119q57 23 130 22h196q72 0 127 -22l107 119l112 -121l-102 -115q6 -20 6 -45v-467q0 -16 -4 -41l90 -98l-115 -121l-88 96q-53 -20 -133 -20h-196q-80 0 -134 20l-86 -96l-116 121l90 98q-4 12 -4 41v467q0 31 4 45zM330 500q0 -90 114 -90h121 q115 0 115 90v327q0 88 -115 88h-121q-115 0 -114 -88v-327z" />
<glyph unicode="&#xa5;" horiz-adv-x="1034" d="M33 1475h246l235 -707l238 707h241l-288 -752h172v-199h-246v-137h246v-199h-246v-188h-232v188h-247v199h247v133l-2 4h-245v199h170z" />
<glyph unicode="&#xa6;" horiz-adv-x="458" d="M117 307h225v-819h-225v819zM117 717v819h225v-819h-225z" />
<glyph unicode="&#xa7;" horiz-adv-x="1036" d="M51 0h211v-63q0 -63 39 -87t117 -22q78 0 118 25t39 96v43q0 47 -33 76q-34 29 -124 45l-113 18q-139 25 -187 85t-48 212v51q0 195 188 252q-14 55 -14 143v60q0 135 91 205q91 69 260 69t265 -68t96 -194v-96h-211v65q0 57 -32 83q-33 26 -111 26q-137 0 -137 -100v-50 q-1 -56 25 -80t102 -40l94 -19q172 -33 230 -91t59 -193v-54q0 -227 -187 -288q12 -49 13 -113v-37q0 -174 -94 -251q-93 -77 -281 -77t-282 67q-93 67 -93 212v90zM291 428q-1 -61 25 -83t108 -40l100 -18q12 -4 21 -4h51q78 -1 115 23t37 89v43q0 46 -34 72t-128 49l-49 8 q-33 2 -109 2q-137 0 -137 -102v-39z" />
<glyph unicode="&#xa8;" horiz-adv-x="901" d="M129 1167v252h244v-252h-244zM512 1167v252h242v-252h-242z" />
<glyph unicode="&#xa9;" horiz-adv-x="1380" d="M111 279v917q0 133 91 206t251 73h477q160 0 251 -73t91 -206v-917q0 -133 -91 -206t-251 -73h-477q-160 0 -251 73t-91 206zM279 307q0 -154 192 -153h440q193 0 193 153v860q0 154 -193 154h-440q-193 0 -192 -154v-860zM444 496v467q0 90 67 140t179 50t176 -50 t64 -140v-142h-150v97q0 88 -91 88t-91 -88v-377q0 -88 92 -88q41 -1 66 23t24 65v96h150v-141q0 -90 -65 -140t-177 -51q-112 0 -178 50t-66 141z" />
<glyph unicode="&#xaa;" horiz-adv-x="733" d="M68 899v21q0 100 51 154t145 54t164 -22v129q0 76 -63 76t-64 -76v-35h-197v88q0 96 69 152t194 55q125 0 197 -55t73 -152v-581h-184l-11 47q-80 -62 -177 -62t-147 54t-50 153zM272 899q0 -74 68 -74q53 0 88 27v123q-41 20 -88 20q-68 0 -68 -71v-25z" />
<glyph unicode="&#xab;" horiz-adv-x="944" d="M63 512v147l207 353h217l-227 -424l-6 -2l6 -2l227 -424h-217zM459 512v147l207 353h217l-228 -424l-6 -2l6 -2l228 -424h-217z" />
<glyph unicode="&#xac;" horiz-adv-x="993" d="M94 651v199h793v-344h-201v145h-592z" />
<glyph unicode="&#xad;" horiz-adv-x="825" d="M94 598v199h639v-199h-639z" />
<glyph unicode="&#xae;" horiz-adv-x="1380" d="M111 279v917q0 133 91 206t251 73h477q160 0 251 -73t91 -206v-917q0 -133 -91 -206t-251 -73h-477q-160 0 -251 73t-91 206zM279 307q0 -154 192 -153h440q193 0 193 153v860q0 154 -193 154h-440q-193 0 -192 -154v-860zM453 332v801h235q244 0 244 -220v-94 q0 -139 -123 -180l135 -307h-176l-117 291h-41v-291h-157zM610 756h56q55 0 82 22t26 78v43q0 100 -102 100h-62v-243z" />
<glyph unicode="&#xaf;" horiz-adv-x="1536" d="M0 1325v174h528v-174h-528z" />
<glyph unicode="&#xb0;" horiz-adv-x="710" d="M70 1126v115q0 123 73 189q74 66 212 66t212 -66t74 -189v-115q0 -254 -285 -254q-139 0 -213 66t-73 188zM246 1155q0 -113 110 -113t109 113v57q0 113 -110 113t-109 -113v-57z" />
<glyph unicode="&#xb1;" horiz-adv-x="980" d="M90 692v197h305v338h191v-338h305v-197h-305v-340h-191v340h-305zM92 0v197h799v-197h-799z" />
<glyph unicode="&#xb2;" horiz-adv-x="724" d="M57 451v84q0 276 193 413q74 49 118 92q44 42 64 72t21 80v41q0 90 -78 90h-37q-72 0 -72 -84v-92h-192v141q0 100 72 155q73 54 206 54h27q135 0 206 -61t70 -179v-59q0 -114 -46 -184t-187 -170q-137 -94 -162 -219h410v-174h-613z" />
<glyph unicode="&#xb3;" horiz-adv-x="729" d="M53 645v133h191v-69q0 -86 94 -86h47q90 0 90 100v88q0 49 -22 73q-23 24 -78 23h-129v154h112q90 0 91 106v58q-1 55 -17 77t-57 21h-25q-80 0 -80 -92v-60h-188v119q0 98 72 152t200 55h25q266 0 266 -248v-78q0 -121 -110 -159q129 -41 129 -197v-90q0 -153 -71 -221 t-214 -68h-62q-135 0 -199 49t-65 160z" />
<glyph unicode="&#xb4;" horiz-adv-x="694" d="M106 1128l156 338h270l-270 -338h-156z" />
<glyph unicode="&#xb5;" horiz-adv-x="954" d="M113 272v834h225v-512h2v-299q12 -106 100 -107q70 0 174 70v848h224v-1106h-185l-14 76q-164 -96 -287 -96h-12v-492h-225v731q-2 16 -2 53z" />
<glyph unicode="&#xb6;" horiz-adv-x="946" d="M59 850v432q1 92 57 142t163 51h544v-1708h-188v1540h-111v-1540h-188v890h-57q-107 1 -163 51t-57 142z" />
<glyph unicode="&#xb7;" horiz-adv-x="440" d="M100 471v289h240v-289h-240z" />
<glyph unicode="&#xb8;" horiz-adv-x="694" d="M260 -319h107q57 0 76 13t20 48v10q1 37 -17 52t-67 16h-66v196h115v-106h16q166 0 166 -166q0 -96 -58 -137t-190 -41h-102v115z" />
<glyph unicode="&#xb9;" horiz-adv-x="493" d="M37 1178v192l221 113h143v-1032h-204v788z" />
<glyph unicode="&#xba;" horiz-adv-x="733" d="M82 915v361q0 104 75 162t207 59t205 -57q74 -58 74 -164v-361q0 -106 -74 -163q-74 -58 -206 -58q-133 0 -207 58t-74 163zM283 967q-1 -84 79 -84t80 84v258q0 84 -80 84t-79 -84v-258z" />
<glyph unicode="&#xbb;" horiz-adv-x="944" d="M63 160l228 424l6 2l-6 2l-228 424h218l206 -353v-147l-206 -352h-218zM457 160l227 424l6 2l-6 2l-227 424h217l207 -353v-147l-207 -352h-217z" />
<glyph unicode="&#xbc;" horiz-adv-x="1675" d="M43 1178v192l221 113h144v-1032h-205v788zM377 -41l618 1557h197l-612 -1557h-203zM956 182v146l381 704h179v-678h112v-172h-112v-182h-203v182h-357zM1157 354h156v303z" />
<glyph unicode="&#xbd;" horiz-adv-x="1742" d="M43 1178v192l221 113h144v-1032h-205v788zM377 -41l618 1557h197l-612 -1557h-203zM1067 0v84q0 276 193 414q77 51 120 92q42 41 62 72t20 79v41q0 90 -78 90h-36q-72 0 -72 -84v-92h-193v142q0 100 73 154t206 55h27q135 1 205 -61t71 -179v-59q0 -113 -46 -184 t-187 -171q-137 -94 -162 -219h409v-174h-612z" />
<glyph unicode="&#xbe;" horiz-adv-x="1849" d="M61 645v133h191v-69q0 -86 94 -86h47q90 0 90 100v88q0 49 -22 73q-23 24 -78 23h-129v154h113q90 0 90 106v58q-1 55 -17 77t-57 21h-25q-80 0 -79 -92v-60h-189v119q0 98 72 152t200 55h25q266 0 266 -248v-78q0 -121 -110 -159q129 -41 129 -197v-90q0 -153 -71 -221 t-214 -68h-61q-135 0 -200 49t-65 160zM551 -41l618 1557h197l-612 -1557h-203zM1130 182v146l381 704h179v-678h112v-172h-112v-182h-203v182h-357zM1331 354h156v303z" />
<glyph unicode="&#xbf;" horiz-adv-x="915" d="M115 96q0 128 43 182t176 111q70 31 92 69t20 101v158h224v-215q0 -104 -38 -162t-130 -95q-92 -38 -124 -79t-32 -117v-131q0 -90 32 -129t99 -39h33q70 0 102 39t31 129v129h227v-194q0 -145 -97 -223t-265 -76h-33q-170 0 -265 76t-95 225v241zM414 842v288h239v-288 h-239z" />
<glyph unicode="&#xc0;" horiz-adv-x="1060" d="M8 0l385 1475h275l387 -1475h-234l-78 319h-428l-75 -319h-232zM207 1894h266l164 -340h-156zM367 530h327l-164 680z" />
<glyph unicode="&#xc1;" horiz-adv-x="1060" d="M8 0l385 1475h275l387 -1475h-234l-78 319h-428l-75 -319h-232zM367 530h327l-164 680zM451 1556l155 338h271l-271 -338h-155z" />
<glyph unicode="&#xc2;" horiz-adv-x="1060" d="M8 0l385 1475h275l387 -1475h-234l-78 319h-428l-75 -319h-232zM205 1552l246 299h167l248 -299h-209l-122 160l-123 -160h-207zM367 530h327l-164 680z" />
<glyph unicode="&#xc3;" horiz-adv-x="1060" d="M8 0l385 1475h275l387 -1475h-234l-78 319h-428l-75 -319h-232zM229 1554q3 125 53 195t131 70t162 -71q27 -24 43 -24q46 1 48 99h161q-4 -268 -188 -269q-59 0 -121 48t-80 47q-43 0 -47 -95h-162zM367 530h327l-164 680z" />
<glyph unicode="&#xc4;" horiz-adv-x="1060" d="M8 0l385 1475h275l387 -1475h-234l-78 319h-428l-75 -319h-232zM225 1554v252h244v-252h-244zM367 530h327l-164 680zM608 1554v252h242v-252h-242z" />
<glyph unicode="&#xc5;" horiz-adv-x="1060" d="M8 0l385 1475h275l387 -1475h-234l-78 319h-428l-75 -319h-232zM303 1763v90q-1 188 233 188t234 -188v-90q0 -188 -233 -188t-234 188zM367 530h327l-164 680zM449 1806q0 -102 88 -102t88 102v6q0 100 -88 101q-88 0 -88 -101v-6z" />
<glyph unicode="&#xc6;" horiz-adv-x="1554" d="M-6 0l676 1475h815v-199h-490v-418h381v-199h-381v-460h490v-199h-723v328h-379l-143 -328h-246zM471 526h291v656z" />
<glyph unicode="&#xc7;" horiz-adv-x="1019" d="M111 299v877q-1 152 111 236t301 83q189 0 297 -84t108 -235v-234h-219v178q1 162 -183 162t-184 -162v-766q0 -86 45 -124t139 -37q182 0 183 161v178h219v-233q0 -129 -83 -210t-229 -101v-78h17q166 0 166 -166q-1 -96 -59 -137t-189 -41h-102v115h106q57 0 77 13 q19 13 19 48v10q0 37 -17 52t-67 16h-65v160q-182 4 -287 87q-104 83 -104 232z" />
<glyph unicode="&#xc8;" horiz-adv-x="915" d="M125 0v1475h723v-199h-492v-418h383v-199h-383v-460h492v-199h-723zM168 1894h266l164 -340h-156z" />
<glyph unicode="&#xc9;" horiz-adv-x="915" d="M125 0v1475h723v-199h-492v-418h383v-199h-383v-460h492v-199h-723zM356 1556l156 338h270l-270 -338h-156z" />
<glyph unicode="&#xca;" horiz-adv-x="915" d="M125 0v1475h723v-199h-492v-418h383v-199h-383v-460h492v-199h-723zM168 1552l246 299h168l247 -299h-208l-123 160l-123 -160h-207z" />
<glyph unicode="&#xcb;" horiz-adv-x="915" d="M125 0v1475h723v-199h-492v-418h383v-199h-383v-460h492v-199h-723zM178 1554v289h240v-289h-240zM584 1554v289h239v-289h-239z" />
<glyph unicode="&#xcc;" horiz-adv-x="481" d="M-92 1894h266l164 -340h-156zM125 0v1475h231v-1475h-231z" />
<glyph unicode="&#xcd;" horiz-adv-x="483" d="M98 1556l156 338h270l-270 -338h-156zM125 0v1475h231v-1475h-231z" />
<glyph unicode="&#xce;" horiz-adv-x="481" d="M-92 1552l246 299h168l247 -299h-209l-122 160l-123 -160h-207zM125 0v1475h231v-1475h-231z" />
<glyph unicode="&#xcf;" horiz-adv-x="481" d="M-82 1554v289h240v-289h-240zM125 0v1475h231v-1475h-231zM324 1554v289h239v-289h-239z" />
<glyph unicode="&#xd0;" horiz-adv-x="1118" d="M27 631v198h123v646h378q254 -1 371 -107t117 -315v-672q0 -197 -110 -289t-359 -92h-397v631h-123zM383 213h164q125 0 187 46t63 169v602q0 231 -269 232h-145v-433h172v-198h-172v-418z" />
<glyph unicode="&#xd1;" horiz-adv-x="1146" d="M125 0v1475h188l502 -963l-2 51v912h209v-1475h-191l-501 965l2 -33v-932h-207zM285 1554q2 125 52 195t130 70t164 -71q27 -24 43 -24q45 1 47 99h162q-4 -268 -189 -269q-58 0 -120 48t-80 47q-43 0 -48 -95h-161z" />
<glyph unicode="&#xd2;" d="M111 319v836q0 160 113 250q114 90 315 90t313 -89t113 -251v-836q0 -163 -113 -251q-114 -88 -314 -88t-314 90t-113 249zM207 1915h266l164 -340h-156zM342 383q0 -100 47 -145t149 -45t148 45q47 45 47 145v709q0 100 -47 145t-148 45q-100 0 -148 -45t-48 -145v-709z " />
<glyph unicode="&#xd3;" d="M111 319v836q0 160 113 250q114 90 315 90t313 -89t113 -251v-836q0 -163 -113 -251q-114 -88 -314 -88t-314 90t-113 249zM342 383q0 -100 47 -145t149 -45t148 45q47 45 47 145v709q0 100 -47 145t-148 45q-100 0 -148 -45t-48 -145v-709zM449 1577l155 338h270 l-270 -338h-155z" />
<glyph unicode="&#xd4;" d="M111 319v836q0 160 113 250q114 90 315 90t313 -89t113 -251v-836q0 -163 -113 -251q-114 -88 -314 -88t-314 90t-113 249zM207 1573l246 299h168l247 -299h-209l-122 160l-123 -160h-207zM342 383q0 -100 47 -145t149 -45t148 45q47 45 47 145v709q0 100 -47 145 t-148 45q-100 0 -148 -45t-48 -145v-709z" />
<glyph unicode="&#xd5;" d="M111 319v836q0 160 113 250q114 90 315 90t313 -89t113 -251v-836q0 -163 -113 -251q-114 -88 -314 -88t-314 90t-113 249zM266 1587q2 125 52 195t132 70t162 -71q27 -24 43 -24q45 0 47 98h162q-4 -268 -188 -268q-58 0 -120 47t-81 47q-43 0 -47 -94h-162zM342 383 q0 -100 47 -145t149 -45t148 45q47 45 47 145v709q0 100 -47 145t-148 45q-100 0 -148 -45t-48 -145v-709z" />
<glyph unicode="&#xd6;" d="M111 319v836q0 160 113 250q114 90 315 90t313 -89t113 -251v-836q0 -163 -113 -251q-114 -88 -314 -88t-314 90t-113 249zM217 1575v289h240v-289h-240zM342 383q0 -100 47 -145t149 -45t148 45q47 45 47 145v709q0 100 -47 145t-148 45q-100 0 -148 -45t-48 -145v-709z M623 1575v289h239v-289h-239z" />
<glyph unicode="&#xd7;" horiz-adv-x="837" d="M70 504l215 239l-215 240l133 137l217 -239l215 239l131 -137l-215 -240l215 -239l-131 -137l-215 239l-217 -239z" />
<glyph unicode="&#xd8;" d="M80 -35l84 168q-53 78 -53 186v836q0 160 113 250q114 90 300 90t293 -68l47 93h117l-82 -162q66 -82 66 -203v-836q0 -163 -113 -251t-303 -88t-303 73l-45 -88h-121zM342 483l365 725q-41 74 -155 74t-162 -45t-48 -145v-609zM358 281q40 -88 181 -88q100 0 147 45 t47 145v643z" />
<glyph unicode="&#xd9;" horiz-adv-x="1089" d="M117 348v1127h233v-1076q0 -207 195 -206q197 0 196 206v1076h232v-1127q0 -172 -115 -270q-116 -98 -314 -98t-313 98t-114 270zM215 1894h266l164 -340h-156z" />
<glyph unicode="&#xda;" horiz-adv-x="1089" d="M117 348v1127h233v-1076q0 -207 195 -206q197 0 196 206v1076h232v-1127q0 -172 -115 -270q-116 -98 -314 -98t-313 98t-114 270zM459 1556l155 338h271l-271 -338h-155z" />
<glyph unicode="&#xdb;" horiz-adv-x="1089" d="M117 348v1127h233v-1076q0 -207 195 -206q197 0 196 206v1076h232v-1127q0 -172 -115 -270q-116 -98 -314 -98t-313 98t-114 270zM213 1552l246 299h168l247 -299h-208l-123 160l-123 -160h-207z" />
<glyph unicode="&#xdc;" horiz-adv-x="1089" d="M117 348v1127h233v-1076q0 -207 195 -206q197 0 196 206v1076h232v-1127q0 -172 -115 -270q-116 -98 -314 -98t-313 98t-114 270zM233 1554v252h244v-252h-244zM616 1554v252h242v-252h-242z" />
<glyph unicode="&#xdd;" horiz-adv-x="997" d="M16 1475h246l236 -707l237 707h242l-363 -949v-526h-231v520zM410 1556l155 338h271l-271 -338h-155z" />
<glyph unicode="&#xde;" horiz-adv-x="1019" d="M125 -369v1844h225v-361h185q188 0 294 -86t107 -254v-434q0 -170 -106 -255t-295 -85h-185v-369h-225zM350 201h185q180 0 180 174v364q0 174 -180 174h-185v-712z" />
<glyph unicode="&#xdf;" horiz-adv-x="1005" d="M106 0v1225q0 174 94 254t283 80t291 -79t103 -241v-164q0 -137 -115 -198q170 -82 170 -308v-229q0 -170 -104 -255t-291 -85h-103v201h103q174 0 174 182v166q0 205 -164 205h-113v166h8v12h62q152 0 151 176v76q0 92 -33 132q-34 40 -106 40h-24q-152 0 -152 -178 v-1178h-234z" />
<glyph unicode="&#xe0;" horiz-adv-x="890" d="M61 270v41q0 303 304 303h200v187q0 129 -127 129q-121 0 -121 -129v-64h-211v99q0 143 88 217q88 73 252 73q166 0 254 -74t88 -216v-844h-190l-18 78q-112 -82 -250 -82q-270 0 -269 282zM106 1587h267l164 -340h-156zM291 287q0 -119 115 -119q100 0 159 45v229h-145 q-129 0 -129 -123v-32z" />
<glyph unicode="&#xe1;" horiz-adv-x="890" d="M61 270v41q0 303 304 303h200v187q0 129 -127 129q-121 0 -121 -129v-64h-211v99q0 143 88 217q88 73 252 73q166 0 254 -74t88 -216v-844h-190l-18 78q-112 -82 -250 -82q-270 0 -269 282zM291 287q0 -119 115 -119q100 0 159 45v229h-145q-129 0 -129 -123v-32z M350 1249l156 338h270l-270 -338h-156z" />
<glyph unicode="&#xe2;" horiz-adv-x="890" d="M61 270v41q0 303 304 303h200v187q0 129 -127 129q-121 0 -121 -129v-64h-211v99q0 143 88 217q88 73 252 73q166 0 254 -74t88 -216v-844h-190l-18 78q-112 -82 -250 -82q-270 0 -269 282zM106 1245l246 299h168l248 -299h-209l-123 160l-123 -160h-207zM291 287 q0 -119 115 -119q100 0 159 45v229h-145q-129 0 -129 -123v-32z" />
<glyph unicode="&#xe3;" horiz-adv-x="890" d="M61 270v41q0 303 304 303h200v187q0 129 -127 129q-121 0 -121 -129v-64h-211v99q0 143 88 217q88 73 252 73q166 0 254 -74t88 -216v-844h-190l-18 78q-112 -82 -250 -82q-270 0 -269 282zM129 1247q2 125 52 195t132 70t162 -71q27 -24 43 -24q45 1 47 99h162 q-4 -268 -188 -269q-59 0 -121 47t-80 47q-43 0 -47 -94h-162zM291 287q0 -119 115 -119q100 0 159 45v229h-145q-129 0 -129 -123v-32z" />
<glyph unicode="&#xe4;" horiz-adv-x="890" d="M61 270v41q0 303 304 303h200v187q0 129 -127 129q-121 0 -121 -129v-64h-211v99q0 143 88 217q88 73 252 73q166 0 254 -74t88 -216v-844h-190l-18 78q-112 -82 -250 -82q-270 0 -269 282zM125 1247v252h244v-252h-244zM291 287q0 -119 115 -119q100 0 159 45v229h-145 q-129 0 -129 -123v-32zM508 1247v252h242v-252h-242z" />
<glyph unicode="&#xe5;" horiz-adv-x="890" d="M61 270v41q0 303 304 303h200v187q0 129 -127 129q-121 0 -121 -129v-64h-211v99q0 143 88 217q88 73 252 73q166 0 254 -74t88 -216v-844h-190l-18 78q-112 -82 -250 -82q-270 0 -269 282zM229 1456v90q-1 188 233 188t234 -188v-90q0 -188 -233 -188t-234 188zM291 287 q0 -119 115 -119q100 0 159 45v229h-145q-129 0 -129 -123v-32zM375 1499q0 -102 88 -102t88 102v6q0 100 -88 101q-88 0 -88 -101v-6z" />
<glyph unicode="&#xe6;" horiz-adv-x="1390" d="M53 270v41q0 141 76 216t207 75t229 -49v235q0 141 -123 142q-125 0 -125 -142v-51h-211v99q0 139 86 215q86 75 256 75t263 -88q77 88 239 88t260 -84t99 -235v-344h-521v-121q0 -166 149 -166t148 166v27h224v-70q-1 -152 -99 -236q-98 -83 -267 -83t-247 102 q-160 -102 -354 -102q-139 0 -214 76t-75 214zM295 274q0 -122 111 -122q90 0 159 30v209q-59 39 -157 39q-113 0 -113 -123v-33zM788 645h297v119q-1 166 -149 166t-148 -166v-119z" />
<glyph unicode="&#xe7;" horiz-adv-x="901" d="M88 291v524q0 150 97 231q97 80 273 80t268 -80q93 -80 93 -231v-164h-211v109q0 158 -145 158q-152 0 -152 -158v-414q0 -158 152 -158q145 0 145 158v100h211v-155q0 -139 -83 -219t-234 -90v-72h16q166 0 166 -166q0 -96 -58 -137t-190 -41h-102v115h106q57 0 77 13 q19 13 20 48v10q1 37 -17 52t-67 16h-66v164q-143 14 -221 94t-78 213z" />
<glyph unicode="&#xe8;" horiz-adv-x="911" d="M88 299v508q0 151 96 235t272 84t276 -84q99 -84 99 -235v-344h-520v-121q0 -166 146 -166q152 0 151 166v27h223v-70q0 -152 -99 -236q-99 -83 -275 -83t-273 83q-96 84 -96 236zM121 1587h266l164 -340h-156zM311 645h297v119q0 166 -151 166q-146 0 -146 -166v-119z " />
<glyph unicode="&#xe9;" horiz-adv-x="911" d="M88 299v508q0 151 96 235t272 84t276 -84q99 -84 99 -235v-344h-520v-121q0 -166 146 -166q152 0 151 166v27h223v-70q0 -152 -99 -236q-99 -83 -275 -83t-273 83q-96 84 -96 236zM311 645h297v119q0 166 -151 166q-146 0 -146 -166v-119zM362 1249l156 338h270 l-270 -338h-156z" />
<glyph unicode="&#xea;" horiz-adv-x="911" d="M88 299v508q0 151 96 235t272 84t276 -84q99 -84 99 -235v-344h-520v-121q0 -166 146 -166q152 0 151 166v27h223v-70q0 -152 -99 -236q-99 -83 -275 -83t-273 83q-96 84 -96 236zM121 1245l246 299h168l247 -299h-209l-122 160l-123 -160h-207zM311 645h297v119 q0 166 -151 166q-146 0 -146 -166v-119z" />
<glyph unicode="&#xeb;" horiz-adv-x="911" d="M88 299v508q0 151 96 235t272 84t276 -84q99 -84 99 -235v-344h-520v-121q0 -166 146 -166q152 0 151 166v27h223v-70q0 -152 -99 -236q-99 -83 -275 -83t-273 83q-96 84 -96 236zM139 1247v252h244v-252h-244zM311 645h297v119q0 166 -151 166q-146 0 -146 -166v-119z M522 1247v252h242v-252h-242z" />
<glyph unicode="&#xec;" horiz-adv-x="442" d="M-111 1567h267l163 -340h-155zM109 0v1106h225v-1106h-225z" />
<glyph unicode="&#xed;" horiz-adv-x="442" d="M109 0v1106h225v-1106h-225zM131 1229l156 338h270l-270 -338h-156z" />
<glyph unicode="&#xee;" horiz-adv-x="442" d="M-113 1225l246 299h168l248 -299h-209l-123 159l-123 -159h-207zM109 0v1106h225v-1106h-225z" />
<glyph unicode="&#xef;" horiz-adv-x="442" d="M-92 1227v252h244v-252h-244zM109 0v1106h225v-1106h-225zM291 1227v252h241v-252h-241z" />
<glyph unicode="&#xf0;" horiz-adv-x="931" d="M68 299v350q0 131 86 205t221 74t215 -68q-29 139 -90 262l-117 -94l-115 158l129 104q-12 14 -88 109l187 143q53 -53 90 -100l112 90l115 -154l-121 -98q158 -289 158 -733v-248q0 -152 -104 -236q-104 -83 -287 -83q-182 0 -287 83q-104 84 -104 236zM297 354 q0 -166 162 -166t162 166v195q0 94 -40 137t-128 43q-156 0 -156 -147v-228z" />
<glyph unicode="&#xf1;" horiz-adv-x="944" d="M106 0v1114h187l20 -86q170 98 289 98t179 -74t61 -210v-842h-224v776q0 141 -104 142q-61 0 -182 -78v-840h-226zM207 1229q2 125 52 195t130 69q80 0 164 -71q27 -24 43 -23q45 0 47 98h162q-4 -268 -189 -268q-59 0 -120 47t-80 47q-43 0 -47 -94h-162z" />
<glyph unicode="&#xf2;" horiz-adv-x="917" d="M88 291v524q0 150 97 231q97 80 275 80t274 -80q97 -80 97 -231v-524q0 -150 -97 -231q-97 -80 -274 -80t-275 80q-97 81 -97 231zM98 1587h267l163 -340h-155zM311 346q1 -158 149 -158t148 158v414q0 158 -148 158t-149 -158v-414z" />
<glyph unicode="&#xf3;" horiz-adv-x="917" d="M88 291v524q0 150 97 231q97 80 275 80t274 -80q97 -80 97 -231v-524q0 -150 -97 -231q-97 -80 -274 -80t-275 80q-97 81 -97 231zM311 346q1 -158 149 -158t148 158v414q0 158 -148 158t-149 -158v-414zM340 1249l156 338h270l-270 -338h-156z" />
<glyph unicode="&#xf4;" horiz-adv-x="917" d="M88 291v524q0 150 97 231q97 80 275 80t274 -80q97 -80 97 -231v-524q0 -150 -97 -231q-97 -80 -274 -80t-275 80q-97 81 -97 231zM96 1245l246 299h168l248 -299h-209l-123 160l-123 -160h-207zM311 346q1 -158 149 -158t148 158v414q0 158 -148 158t-149 -158v-414z " />
<glyph unicode="&#xf5;" horiz-adv-x="917" d="M88 291v524q0 150 97 231q97 80 275 80t274 -80q97 -80 97 -231v-524q0 -150 -97 -231q-97 -80 -274 -80t-275 80q-97 81 -97 231zM154 1229q2 125 52 195t130 69q80 0 164 -71q27 -24 43 -23q45 0 47 98h162q-4 -268 -189 -268q-59 0 -121 47t-80 47q-43 0 -47 -94h-161 zM311 346q1 -158 149 -158t148 158v414q0 158 -148 158t-149 -158v-414z" />
<glyph unicode="&#xf6;" horiz-adv-x="919" d="M88 291v524q0 150 97 231q97 80 275 80t274 -80q97 -80 97 -231v-524q0 -150 -97 -231q-97 -80 -274 -80t-275 80q-97 81 -97 231zM119 1247v252h243v-252h-243zM311 346q1 -158 149 -158t148 158v414q0 158 -148 158t-149 -158v-414zM502 1247v252h241v-252h-241z" />
<glyph unicode="&#xf7;" horiz-adv-x="942" d="M72 459v196h798v-196h-798zM352 0v289h240v-289h-240zM352 807v289h240v-289h-240z" />
<glyph unicode="&#xf8;" horiz-adv-x="917" d="M47 -45l84 166q-43 72 -43 170v524q0 150 97 231t276 80q96 0 166 -24l28 55h160l-63 -129q80 -80 79 -213v-524q0 -150 -97 -231t-273 -80q-127 0 -215 40l-33 -65h-166zM311 475l217 430q-31 12 -67 13q-150 0 -150 -158v-285zM348 225q35 -37 113 -37q147 0 147 158 v397z" />
<glyph unicode="&#xf9;" horiz-adv-x="935" d="M102 272v834h226v-768q0 -150 102 -150q70 0 174 70v848h223v-1106h-184l-14 76q-164 -96 -285 -96t-181 76t-61 216zM131 1567h266l164 -340h-155z" />
<glyph unicode="&#xfa;" horiz-adv-x="935" d="M102 272v834h226v-768q0 -150 102 -150q70 0 174 70v848h223v-1106h-184l-14 76q-164 -96 -285 -96t-181 76t-61 216zM373 1229l155 338h271l-271 -338h-155z" />
<glyph unicode="&#xfb;" horiz-adv-x="935" d="M102 272v834h226v-768q0 -150 102 -150q70 0 174 70v848h223v-1106h-184l-14 76q-164 -96 -285 -96t-181 76t-61 216zM131 1225l246 299h168l248 -299h-209l-123 159l-123 -159h-207z" />
<glyph unicode="&#xfc;" horiz-adv-x="935" d="M102 272v834h226v-768q0 -150 102 -150q70 0 174 70v848h223v-1106h-184l-14 76q-164 -96 -285 -96t-181 76t-61 216zM150 1227v252h243v-252h-243zM532 1227v252h242v-252h-242z" />
<glyph unicode="&#xfd;" horiz-adv-x="892" d="M20 1106h248l185 -821l184 821h246l-305 -1073q-74 -254 -169 -338t-241 -84q-66 0 -115 14v193q37 -10 99 -10q137 -1 194 192h-4zM373 1229l155 338h271l-271 -338h-155z" />
<glyph unicode="&#xfe;" horiz-adv-x="944" d="M106 -369v1844h228v-441q158 92 250 92q130 0 198 -78t68 -225v-518q0 -151 -71 -235t-206 -84t-239 84v-439h-228zM334 260q86 -66 172 -65q121 0 121 170v399q0 154 -111 154q-51 0 -182 -78v-580z" />
<glyph unicode="&#xff;" horiz-adv-x="892" d="M20 1106h248l185 -821l184 821h246l-305 -1073q-74 -254 -169 -338t-241 -84q-66 0 -115 14v193q37 -10 99 -10q137 -1 194 192h-4zM147 1227v252h244v-252h-244zM530 1227v252h242v-252h-242z" />
<glyph unicode="&#x152;" horiz-adv-x="1525" d="M111 319v836q0 160 113 250q114 90 315 90q111 0 194 -45v25h723v-199h-491v-418h383v-199h-383v-460h491v-199h-723v25q-84 -45 -194 -45q-201 0 -315 90t-113 249zM342 383q0 -100 47 -145t149 -45t148 45q47 45 47 145v709q0 100 -47 145t-148 45q-100 0 -148 -45 t-48 -145v-709z" />
<glyph unicode="&#x153;" horiz-adv-x="1396" d="M88 291v524q0 150 97 231q97 80 260 80t257 -59q94 59 255 59t261 -84t99 -235v-344h-486v-172q0 -37 -6 -68q35 -47 117 -47q152 0 152 166v27h223v-70q0 -152 -99 -236q-99 -83 -260 -83t-256 59q-94 -59 -256 -59t-261 80q-97 81 -97 231zM311 346q0 -158 150 -158 q80 0 117 45q-4 41 -5 66v508q0 23 5 63q-35 47 -117 48q-150 0 -150 -158v-414zM825 883q6 -35 6 -68v-170h263v119q0 166 -152 166q-80 0 -117 -47z" />
<glyph unicode="&#x178;" horiz-adv-x="997" d="M16 1475h246l236 -707l237 707h242l-363 -949v-526h-231v520zM184 1554v252h244v-252h-244zM567 1554v252h242v-252h-242z" />
<glyph unicode="&#x2c6;" horiz-adv-x="970" d="M147 1124l246 299h168l248 -299h-209l-123 160l-123 -160h-207z" />
<glyph unicode="&#x2dc;" horiz-adv-x="802" d="M100 1178q2 124 52 194t132 70q81 0 162 -71q27 -24 43 -23q46 0 48 98h161q-4 -268 -188 -268q-58 0 -120 47t-81 47q-43 0 -47 -94h-162z" />
<glyph unicode="&#x2000;" horiz-adv-x="1020" />
<glyph unicode="&#x2001;" horiz-adv-x="2041" />
<glyph unicode="&#x2002;" horiz-adv-x="1020" />
<glyph unicode="&#x2003;" horiz-adv-x="2041" />
<glyph unicode="&#x2004;" horiz-adv-x="680" />
<glyph unicode="&#x2005;" horiz-adv-x="510" />
<glyph unicode="&#x2006;" horiz-adv-x="340" />
<glyph unicode="&#x2007;" horiz-adv-x="340" />
<glyph unicode="&#x2008;" horiz-adv-x="255" />
<glyph unicode="&#x2009;" horiz-adv-x="408" />
<glyph unicode="&#x200a;" horiz-adv-x="113" />
<glyph unicode="&#x2010;" horiz-adv-x="825" d="M94 598v199h639v-199h-639z" />
<glyph unicode="&#x2011;" horiz-adv-x="825" d="M94 598v199h639v-199h-639z" />
<glyph unicode="&#x2012;" horiz-adv-x="825" d="M94 598v199h639v-199h-639z" />
<glyph unicode="&#x2013;" horiz-adv-x="892" d="M94 662v196h707v-196h-707z" />
<glyph unicode="&#x2014;" horiz-adv-x="987" d="M94 662v196h799v-196h-799z" />
<glyph unicode="&#x2018;" horiz-adv-x="440" d="M63 969l175 506h149l-57 -506h-267z" />
<glyph unicode="&#x2019;" horiz-adv-x="440" d="M51 969l58 506h266l-174 -506h-150z" />
<glyph unicode="&#x201a;" horiz-adv-x="442" d="M51 -217l58 506h266l-174 -506h-150z" />
<glyph unicode="&#x201c;" horiz-adv-x="755" d="M63 969l175 506h149l-57 -506h-267zM381 969l174 506h150l-58 -506h-266z" />
<glyph unicode="&#x201d;" horiz-adv-x="755" d="M51 969l58 506h266l-174 -506h-150zM365 969l57 506h266l-174 -506h-149z" />
<glyph unicode="&#x201e;" horiz-adv-x="757" d="M51 -217l58 506h266l-174 -506h-150zM365 -217l57 506h266l-174 -506h-149z" />
<glyph unicode="&#x2022;" horiz-adv-x="589" d="M115 595q0 71 52 122t127 51t128 -51t53 -122t-54 -121t-128 -50t-126 50t-52 121z" />
<glyph unicode="&#x2026;" horiz-adv-x="1234" d="M94 0v289h240v-289h-240zM500 0v289h239v-289h-239zM905 0v289h240v-289h-240z" />
<glyph unicode="&#x202f;" horiz-adv-x="408" />
<glyph unicode="&#x2039;" horiz-adv-x="550" d="M63 512v147l207 353h217l-227 -424l-6 -2l6 -2l227 -424h-217z" />
<glyph unicode="&#x203a;" horiz-adv-x="550" d="M63 160l228 424l6 2l-6 2l-228 424h218l206 -353v-147l-206 -352h-218z" />
<glyph unicode="&#x205f;" horiz-adv-x="510" />
<glyph unicode="&#x20ac;" horiz-adv-x="1091" d="M59 528v162h129v84h-129v162h129v240q0 152 112 236t301 83q189 0 297 -84t108 -235v-234h-220v178q0 162 -183 162t-183 -162v-184h174v-162h-174v-84h174v-162h-174v-174q0 -86 45 -124t139 -37q182 0 182 161v178h220v-233q0 -152 -112 -236q-112 -83 -301 -83 t-297 84t-108 235v229h-129z" />
<glyph unicode="&#x2122;" horiz-adv-x="1411" d="M45 1323v152h553v-152h-195v-711h-163v711h-195zM649 612v863h150l176 -402l176 402h152v-863h-160v471l-113 -231h-106l-113 229v-469h-162z" />
<glyph unicode="&#x25fc;" horiz-adv-x="1105" d="M0 0v1105h1105v-1105h-1105z" />
</font>
</defs>
</svg>
