<?xml version="1.0" standalone="no"?>
<!DOCTYPE svg PUBLIC "-//W3C//DTD SVG 1.1//EN" "http://www.w3.org/Graphics/SVG/1.1/DTD/svg11.dtd" >
<svg xmlns="http://www.w3.org/2000/svg">
<metadata></metadata>
<defs>
<font id="ginesonorm_medium" horiz-adv-x="978" >
<font-face units-per-em="2048" ascent="1638" descent="-410" />
<missing-glyph horiz-adv-x="397" />
<glyph horiz-adv-x="0" />
<glyph horiz-adv-x="682" />
<glyph horiz-adv-x="0" />
<glyph horiz-adv-x="0" />
<glyph unicode="&#xd;" horiz-adv-x="681" />
<glyph unicode=" "  horiz-adv-x="397" />
<glyph unicode="&#x09;" horiz-adv-x="397" />
<glyph unicode="&#xa0;" horiz-adv-x="397" />
<glyph unicode="!" horiz-adv-x="466" d="M133 958v517h203v-517l-43 -602h-119zM135 0v248h195v-248h-195z" />
<glyph unicode="&#x22;" horiz-adv-x="690" d="M88 1475h223l-55 -504h-113zM379 1475h223l-55 -504h-113z" />
<glyph unicode="#" horiz-adv-x="1196" d="M68 422v129h233l43 362h-215v129h229l52 433h137l-51 -433h278l51 433h138l-52 -433h217v-129h-231l-41 -362h213v-129h-227l-47 -422h-142l49 422h-276l-47 -422h-141l49 422h-219zM440 551h277l43 362h-279z" />
<glyph unicode="$" horiz-adv-x="1038" d="M94 279v174h187v-119q0 -109 44 -148t146 -39h90q111 0 162 39t51 162v105q0 82 -41 131t-143 71l-191 41q-151 31 -217 109t-65 254v90q0 315 315 344v186h72v-184h51v184h70v-190q137 -18 215 -95t78 -198v-160h-185v121q0 178 -196 178h-41q-100 0 -146 -45t-45 -153 v-68q0 -104 31 -142t129 -61l176 -39q182 -43 252 -127t70 -251v-101q0 -342 -338 -366v-187h-70v185h-51v-185h-72v185q-170 6 -254 78t-84 221z" />
<glyph unicode="%" horiz-adv-x="2105" d="M96 776v484q0 111 84 174t230 63t229 -63q84 -63 84 -174v-484q0 -111 -84 -174t-229 -63t-230 63q-84 63 -84 174zM250 805q0 -129 159 -129t158 129v426q-1 129 -159 129t-158 -129v-426zM596 -41l688 1557h162l-682 -1557h-168zM1327 215v483q0 111 84 174 q84 64 229 64q146 0 230 -64t84 -174v-483q0 -111 -84 -174t-230 -63t-229 62q-84 64 -84 175zM1483 244q-1 -129 157 -129t158 129v426q0 129 -158 129t-157 -129v-426z" />
<glyph unicode="&#x26;" horiz-adv-x="1271" d="M109 346v174q0 205 186 266q-166 70 -166 252v131q0 160 99 243t284 83h66q186 0 288 -75t103 -212v-172h-183v131q0 168 -208 168h-66q-199 0 -199 -182v-113q0 -193 234 -192h674v-148h-230v-397q0 -324 -377 -323h-102q-203 0 -303 85t-100 281zM289 336 q0 -106 56 -152t167 -45h96q201 0 201 183v378h-303q-217 0 -217 -184v-180z" />
<glyph unicode="'" horiz-adv-x="399" d="M88 1475h223l-55 -504h-113z" />
<glyph unicode="(" horiz-adv-x="624" d="M90 580q0 508 299 948h207q-154 -258 -228 -465t-73 -483q0 -276 74 -484t227 -465h-207q-299 441 -299 949z" />
<glyph unicode=")" horiz-adv-x="624" d="M29 -369q153 257 227 465t74 484t-74 483t-227 465h207q299 -440 299 -948t-299 -949h-207z" />
<glyph unicode="*" horiz-adv-x="921" d="M96 969l299 116l-297 117l80 139l250 -200l-49 317h162l-49 -317l251 200l82 -139l-303 -117l301 -116l-80 -140l-251 201l49 -317h-162l49 317l-250 -201z" />
<glyph unicode="+" horiz-adv-x="987" d="M76 733v158h340v338h155v-338h338v-158h-338v-338h-155v338h-340z" />
<glyph unicode="," horiz-adv-x="438" d="M59 -211l70 461h217l-164 -461h-123z" />
<glyph unicode="-" horiz-adv-x="901" d="M113 641v160h675v-160h-675z" />
<glyph unicode="." horiz-adv-x="417" d="M111 0v248h194v-248h-194z" />
<glyph unicode="/" horiz-adv-x="1101" d="M35 -53l831 1581h201l-827 -1581h-205z" />
<glyph unicode="0" horiz-adv-x="1075" d="M131 299v877q0 152 109 236t298 83q188 1 298 -83t110 -236v-877q0 -152 -110 -236q-110 -83 -298 -83q-189 0 -298 84t-109 235zM315 328q-1 -84 57 -134t167 -49q109 -1 165 49t56 134v819q0 84 -56 133t-166 49q-108 0 -165 -49t-58 -133v-819z" />
<glyph unicode="1" horiz-adv-x="665" d="M74 1147v168l313 160h129v-1475h-182v1268z" />
<glyph unicode="2" horiz-adv-x="983" d="M96 0v84q-8 221 78 378t272 281q187 123 223 220q17 47 17 106v68q0 199 -178 198h-37q-86 0 -133 -45t-47 -129v-137h-182v172q0 143 96 221t268 78h35q178 0 272 -87t94 -255v-86q0 -104 -45 -190t-112 -145q-68 -58 -189 -138q-238 -154 -254 -434h621v-160h-799z" />
<glyph unicode="3" horiz-adv-x="1005" d="M88 279v165h170v-122q0 -92 44 -134t136 -41h80q100 -1 150 45t49 152v172q0 184 -189 184h-151v148h119q197 0 196 184v129q0 174 -168 174h-37q-188 0 -188 -159v-144h-168v176q0 137 94 212t264 75h35q352 0 353 -326v-131q0 -186 -172 -239q190 -55 190 -279v-174 q0 -194 -92 -280t-279 -86h-90q-174 0 -260 70t-86 229z" />
<glyph unicode="4" horiz-adv-x="968" d="M47 252v88l328 1135h188l-309 -1067h309v210l53 205h134v-415h159v-156h-159v-252h-187v252h-516z" />
<glyph unicode="5" horiz-adv-x="966" d="M88 291v153h180v-90q0 -114 43 -160t131 -47h66q180 0 180 205v193q0 201 -190 200h-351l19 730h668v-160h-492l-10 -406l170 2q369 2 368 -362v-203q0 -194 -92 -280t-274 -86h-66q-178 0 -264 74t-86 237z" />
<glyph unicode="6" horiz-adv-x="1044" d="M133 299v877q1 152 107 236t292 83q186 0 292 -81q108 -81 108 -226v-152h-189v109q-1 182 -211 182t-210 -194v-326q89 84 256 84q166 0 260 -80t94 -223v-287q0 -153 -108 -237t-296 -84t-291 84t-104 235zM322 342q0 -195 210 -195t211 195v195q1 194 -200 194 q-103 0 -161 -48t-60 -138v-203z" />
<glyph unicode="7" horiz-adv-x="858" d="M53 1315v160h756v-132l-479 -1343h-191l467 1315h-553z" />
<glyph unicode="8" horiz-adv-x="1042" d="M104 299v215q0 193 193 272q-162 70 -162 254v148q-1 145 103 226t283 81t283 -81t103 -226v-148q0 -188 -159 -256q190 -76 190 -270v-215q0 -152 -112 -236q-112 -83 -306 -83t-304 84q-112 84 -112 235zM295 330q0 -199 226 -199t227 199v182q-1 203 -227 203 t-226 -203v-182zM317 1030q0 -170 204 -170t204 170v139q0 174 -204 174t-204 -174v-139z" />
<glyph unicode="9" horiz-adv-x="1044" d="M113 287v151h186v-108q0 -182 212 -182t212 194v326q-90 -84 -258 -84t-260 80t-92 223v287q-1 152 107 236t296 85q188 0 292 -84t103 -235v-877q1 -152 -107 -236q-108 -83 -292 -83t-292 80t-107 227zM299 938q0 -195 203 -195q102 -1 160 47t61 138v205 q0 195 -212 195t-212 -195v-195z" />
<glyph unicode=":" horiz-adv-x="444" d="M127 0v248h195v-248h-195zM127 807v248h195v-248h-195z" />
<glyph unicode=";" horiz-adv-x="495" d="M88 -211l70 461h217l-164 -461h-123zM170 807v248h195v-248h-195z" />
<glyph unicode="&#x3c;" horiz-adv-x="808" d="M55 559v150l461 561h223l-528 -635l528 -635h-223z" />
<glyph unicode="=" horiz-adv-x="923" d="M125 272v160h676v-160h-676zM125 682v160h676v-160h-676z" />
<glyph unicode="&#x3e;" horiz-adv-x="811" d="M72 0l528 635l-528 635h223l461 -561v-150l-461 -559h-223z" />
<glyph unicode="?" horiz-adv-x="1001" d="M92 1010v184q0 147 102 224t273 77h37q174 0 275 -77t102 -222v-242q1 -121 -49 -175t-160 -98t-136 -84t-26 -101v-199h-180v240q0 102 43 157t146 93t139 81t36 121v160q0 190 -190 190h-37q-193 0 -193 -190v-139h-182zM324 0v248h194v-248h-194z" />
<glyph unicode="@" horiz-adv-x="1556" d="M135 262v920q-1 139 101 217t280 78h545q179 0 283 -78t104 -217v-680q0 -92 -70 -142t-208 -51q-138 0 -195 88q-101 -88 -245 -88t-217 80t-73 207v233q0 129 72 208t206 79t230 -72v58h158v-582q0 -80 90 -80q45 0 74 22t28 58v643q0 186 -258 187h-505 q-250 0 -250 -187v-882q0 -186 250 -187h819v-127h-838q-178 0 -279 78t-102 217zM606 610q0 -84 36 -120t112 -37q125 0 194 82v372q-59 66 -192 66q-150 0 -150 -158v-205z" />
<glyph unicode="A" horiz-adv-x="1138" d="M25 0l436 1475h217l436 -1475h-190l-97 340h-518l-94 -340h-190zM356 508h424l-211 756z" />
<glyph unicode="B" horiz-adv-x="1097" d="M152 0v1475h370q203 0 315 -83t111 -255v-84q0 -180 -180 -246q242 -59 242 -297v-145q0 -181 -120 -273t-331 -92h-407zM342 152h217q123 0 192 59t68 176v117q0 104 -68 158q-69 53 -192 53h-217v-563zM342 858h180q236 0 236 201v53q0 211 -236 211h-180v-465z" />
<glyph unicode="C" horiz-adv-x="1132" d="M135 299v877q0 152 119 236q118 83 318 83h5q205 0 321 -84t116 -235v-234h-178v191q0 94 -69 144t-187 50q-254 0 -254 -194v-791q0 -102 61 -148t193 -47q256 0 256 195v190h178v-233q0 -152 -119 -236q-119 -83 -323 -83t-320 84t-117 235z" />
<glyph unicode="D" horiz-adv-x="1163" d="M152 0v1475h358q280 0 404 -117t124 -354v-533q0 -243 -122 -357t-394 -114h-370zM342 160h180q334 0 334 317v520q0 166 -83 242t-263 76h-168v-1155z" />
<glyph unicode="E" d="M152 0v1475h747v-160h-557v-473h436v-160h-436v-522h557v-160h-747z" />
<glyph unicode="F" horiz-adv-x="944" d="M152 0v1475h747v-160h-557v-535h436v-159h-436v-621h-190z" />
<glyph unicode="G" horiz-adv-x="1153" d="M135 299v877q0 152 121 236q120 83 324 83h5q209 0 327 -84t118 -235v-234h-182v191q0 94 -69 144t-191 50q-262 0 -262 -194v-783q0 -203 257 -203t265 193v235h-260v160h442v-735h-100l-39 100q-103 -120 -315 -120t-326 84t-115 235z" />
<glyph unicode="H" horiz-adv-x="1187" d="M152 0v1475h190v-633h504v633h190v-1475h-190v682h-504v-682h-190z" />
<glyph unicode="I" horiz-adv-x="493" d="M152 0v1475h190v-1475h-190z" />
<glyph unicode="J" horiz-adv-x="1054" d="M61 299v238h183v-187q0 -201 238 -202h2q236 0 237 219v1108h190v-1115q-1 -188 -113 -284t-312 -96t-312 84t-113 235z" />
<glyph unicode="K" horiz-adv-x="1052" d="M152 0v1475h190v-676l463 676h205l-486 -715l514 -760h-217l-479 707v-707h-190z" />
<glyph unicode="L" horiz-adv-x="907" d="M152 0v1475h190v-1315h532v-160h-722z" />
<glyph unicode="M" horiz-adv-x="1488" d="M152 0v1475h198l393 -748l396 748h198v-1475h-182v1028l6 133l-352 -661h-131l-350 665l6 -135v-1030h-182z" />
<glyph unicode="N" horiz-adv-x="1236" d="M152 0v1475h153l608 -1076l-2 76v1000h174v-1475h-153l-608 1071l2 -53v-1018h-174z" />
<glyph unicode="O" horiz-adv-x="1175" d="M135 319v836q0 162 119 251t333 89t334 -89t119 -251v-836q0 -163 -120 -251t-333 -88q-214 0 -333 89t-119 250zM326 375q0 -121 62 -174t198 -53t200 52q63 54 64 175v725q0 121 -64 174t-199 53q-137 0 -199 -53t-62 -174v-725z" />
<glyph unicode="P" horiz-adv-x="1042" d="M152 0v1475h354q244 -1 354 -103t109 -299v-133q0 -182 -110 -277t-353 -96h-164v-567h-190zM342 727h168q137 0 203 56t65 180v100q0 129 -64 191q-63 61 -194 61h-4h-174v-588z" />
<glyph unicode="Q" horiz-adv-x="1175" d="M135 319v836q0 162 119 251t333 89t334 -89t119 -251v-836q0 -244 -260 -317l211 -252l-129 -106l-274 336q-215 0 -334 89t-119 250zM326 375q0 -121 62 -174t198 -53t200 52q63 54 64 175v725q0 121 -64 174t-199 53q-137 0 -199 -53t-62 -174v-725z" />
<glyph unicode="R" horiz-adv-x="1075" d="M152 0v1475h337q244 -1 354 -103t109 -299v-133q0 -276 -245 -346l350 -594h-215l-326 567h-174v-567h-190zM342 727h152q136 0 202 56t66 180v100q0 129 -64 191q-63 61 -194 61h-4h-158v-588z" />
<glyph unicode="S" horiz-adv-x="1054" d="M96 279v174h187v-119q0 -109 44 -148t146 -39h90q111 0 162 39t51 162v105q0 82 -41 131t-143 71l-191 41q-151 31 -217 109q-65 77 -65 249v5v90q0 170 95 258t278 88h45q180 0 281 -79t102 -220v-160h-185v121q0 178 -196 178h-41q-100 0 -146 -45t-45 -153v-68 q0 -104 31 -142t129 -61l176 -39q182 -43 252 -127t70 -251v-101q0 -368 -392 -368h-2h-104q-186 0 -279 70q-92 71 -92 229z" />
<glyph unicode="T" horiz-adv-x="940" d="M33 1315v160h872v-160h-340v-1315h-190v1315h-342z" />
<glyph unicode="U" horiz-adv-x="1191" d="M143 332v1143h191v-1096q0 -231 262 -231t262 231v1096h191v-1143q0 -166 -121 -259t-331 -93t-332 93t-122 259z" />
<glyph unicode="V" horiz-adv-x="1085" d="M47 1475h191l305 -1235l305 1235h190l-393 -1475h-203z" />
<glyph unicode="W" horiz-adv-x="1665" d="M55 1475h187l227 -1280l270 1280h187l270 -1276l227 1276h189l-295 -1475h-225l-258 1206l-259 -1206h-227z" />
<glyph unicode="X" horiz-adv-x="1054" d="M16 0l390 752l-345 723h205l262 -586l263 586h202l-346 -723l391 -752h-207l-303 618l-305 -618h-207z" />
<glyph unicode="Y" horiz-adv-x="1081" d="M39 1475h201l299 -752l301 752h200l-405 -945v-530h-189v530z" />
<glyph unicode="Z" horiz-adv-x="985" d="M51 0v127l631 1188h-596v160h819v-127l-624 -1188h647v-160h-877z" />
<glyph unicode="[" horiz-adv-x="548" d="M143 -276v1751h330v-160h-154v-1432h154v-159h-330z" />
<glyph unicode="\" horiz-adv-x="1101" d="M35 1528h201l831 -1581h-205z" />
<glyph unicode="]" horiz-adv-x="548" d="M76 -117h153v1432h-153v160h330v-1751h-330v159z" />
<glyph unicode="^" horiz-adv-x="1083" d="M61 813l400 657h162l399 -657h-199l-282 500l-281 -500h-199z" />
<glyph unicode="_" horiz-adv-x="1105" d="M86 0h934v-160h-934v160z" />
<glyph unicode="`" horiz-adv-x="794" d="M-4 1462h229l199 -336h-129z" />
<glyph unicode="a" horiz-adv-x="946" d="M76 266v49q0 295 332 295h233v205q0 82 -42 119t-131 37t-127 -37t-38 -119v-57h-172v82q0 286 345 286t345 -286v-848h-149l-19 78q-131 -82 -283 -82t-224 70q-70 71 -70 208zM260 276q0 -143 154 -143q135 0 227 62v276h-201q-94 0 -137 -35t-43 -114v-46z" />
<glyph unicode="b" horiz-adv-x="1009" d="M131 -8v1483h180v-445q178 96 297 96q285 0 285 -295v-526q0 -151 -76 -235q-77 -84 -229 -84t-277 88v-2l-20 -80h-160zM311 231q112 -81 239 -81h3q160 0 160 194v449q-1 170 -148 170q-74 0 -254 -91v-641z" />
<glyph unicode="c" horiz-adv-x="968" d="M113 287v532q0 147 100 227q101 80 281 80t277 -80t97 -227v-160h-172v117q0 186 -202 186t-201 -186v-446q0 -186 205 -187q92 0 145 46t53 141v104h172v-147q0 -145 -97 -227q-95 -80 -268 -80h-9q-180 0 -281 79q-100 80 -100 228z" />
<glyph unicode="d" horiz-adv-x="997" d="M117 293v538q0 137 79 217q77 78 214 78h7q142 0 269 -69v418h180v-1475h-159l-19 66q-131 -80 -272 -80t-220 84t-79 223zM297 344q0 -194 176 -194q92 0 213 67v672q-113 74 -207 74q-182 0 -182 -170v-449z" />
<glyph unicode="e" d="M113 299v508q0 151 98 235t279 84q182 0 284 -84t103 -235v-328h-584v-145q0 -104 47 -152q46 -47 145 -47h4q207 0 207 199v35h181v-70q-1 -152 -103 -236q-102 -83 -284 -83t-279 84q-98 84 -98 235zM293 625h403v147q0 199 -207 199h-4q-99 0 -145 -47 q-47 -48 -47 -152v-147z" />
<glyph unicode="f" horiz-adv-x="620" d="M57 958v148h103v151q0 299 309 299q92 0 137 -18v-156q-41 18 -118 18q-76 0 -112 -34q-36 -35 -36 -115v-145h246v-148h-246v-958h-180v958h-103z" />
<glyph unicode="g" d="M117 313v518q0 137 79 217q77 78 213 78h7q141 0 272 -71l14 59h146v-1163q0 -340 -455 -340q-143 0 -262 27v157q111 -28 241 -28h9q287 0 287 223v84q-123 -68 -258 -68t-214 84t-79 223zM297 365q0 -195 173 -195q89 0 198 57v674q-102 61 -192 61h-2 q-176 0 -177 -169v-428z" />
<glyph unicode="h" horiz-adv-x="985" d="M131 0v1475h180v-433q160 84 289 84t194 -74t64 -206v-846h-180v797q0 164 -139 164q-92 0 -228 -76v-885h-180z" />
<glyph unicode="i" horiz-adv-x="448" d="M129 1282v248h195v-248h-195zM133 0v1106h180v-1106h-180z" />
<glyph unicode="j" horiz-adv-x="458" d="M-74 -227q74 -6 78 -6q76 0 109 62q32 60 32 203v9v1065h181v-1065q0 -229 -70 -329t-240 -101q-47 0 -90 8v154zM141 1294v248h195v-248h-195z" />
<glyph unicode="k" horiz-adv-x="892" d="M131 0v1475h180v-836l348 467h203l-393 -504l414 -602h-205l-367 541v-541h-180z" />
<glyph unicode="l" horiz-adv-x="501" d="M131 319v1156h180v-1133q0 -195 119 -195q47 0 70 11v-154q-36 -12 -146 -12t-167 76q-56 76 -56 251z" />
<glyph unicode="m" horiz-adv-x="1495" d="M131 0v1114h145l19 -82q121 94 279 94t223 -114q130 114 306 114h3q128 0 194 -78t66 -214v-834h-180v788q0 178 -137 179q-104 0 -213 -82q2 -16 2 -51v-834h-181v788q0 178 -137 179q-121 0 -209 -76v-891h-180z" />
<glyph unicode="n" horiz-adv-x="987" d="M131 0v1114h145l19 -82q172 94 304 94t197 -74t64 -206v-846h-180v797q0 164 -137 164q-88 0 -232 -78v-883h-180z" />
<glyph unicode="o" horiz-adv-x="987" d="M113 287v532q0 145 99 227q96 80 273 80h9q184 0 284 -81t99 -226v-532q1 -145 -99 -227q-98 -80 -274 -80h-9q-183 0 -283 80q-99 81 -99 227zM293 330q0 -186 202 -186t201 186v446q0 186 -202 186t-201 -186v-446z" />
<glyph unicode="p" horiz-adv-x="1005" d="M131 -369v1483h145l21 -90q190 102 309 102q283 0 283 -295v-526q0 -151 -76 -235q-75 -84 -225 -84t-277 86v-441h-180zM311 227q112 -77 235 -77h3q160 0 160 194v449q-1 170 -148 170q-78 0 -250 -89v-647z" />
<glyph unicode="q" horiz-adv-x="1009" d="M117 293v538q0 137 79 217q78 78 223 78h7q150 0 289 -86l18 74h144v-1483h-181v439q-137 -84 -279 -84t-221 84t-79 223zM297 344q0 -194 177 -194q93 0 222 73v660q-123 80 -217 80q-182 0 -182 -170v-449z" />
<glyph unicode="r" horiz-adv-x="796" d="M131 0v1114h145l19 -102q136 114 272 114h2q95 0 143 -58t48 -161v-239h-176v209q0 90 -79 90t-194 -99v-868h-180z" />
<glyph unicode="s" horiz-adv-x="917" d="M86 246v123h172v-101q0 -76 48 -104t146 -29q98 0 150 29q51 29 51 112v80q0 49 -30 79q-31 30 -103 42l-162 29q-147 23 -199 84t-53 215v59q0 262 353 262q170 0 260 -66t90 -188v-112h-170v98q0 121 -174 121q-98 0 -143 -29t-46 -92v-53q0 -78 30 -104t120 -42 l147 -26q141 -23 199 -81t57 -183v-90q0 -164 -95 -232q-94 -67 -278 -67h-5q-365 0 -365 266z" />
<glyph unicode="t" horiz-adv-x="655" d="M47 958v148h123v246h180v-246h238v-148h-238v-647q0 -86 36 -128t116 -42t127 19v-152q-66 -20 -166 -20q-153 0 -223 74t-70 219v677h-123z" />
<glyph unicode="u" horiz-adv-x="993" d="M127 272v834h180v-784q0 -176 139 -177q96 0 236 80v881h180v-1106h-145l-17 78q-176 -98 -309 -98t-199 76t-65 216z" />
<glyph unicode="v" horiz-adv-x="929" d="M45 1106h188l230 -909l231 909h189l-322 -1106h-194z" />
<glyph unicode="w" horiz-adv-x="1398" d="M51 1106h189l172 -928l196 928h183l196 -928l174 928h189l-256 -1106h-203l-191 879l-190 -879h-205z" />
<glyph unicode="x" horiz-adv-x="880" d="M29 0l311 578l-289 528h197l192 -408l197 408h192l-290 -528l315 -578h-195l-219 444l-221 -444h-190z" />
<glyph unicode="y" horiz-adv-x="944" d="M39 1106h199l241 -881l232 881h198l-346 -1133q-70 -219 -160 -289t-223 -71q-74 0 -110 10v156q32 -10 102 -10t125 48t92 179v4z" />
<glyph unicode="z" horiz-adv-x="843" d="M49 0v127l510 831h-469v148h676v-127l-522 -832h542v-147h-737z" />
<glyph unicode="{" horiz-adv-x="593" d="M45 451v155q143 0 143 162v444q0 141 79 212t261 71v-156q-160 0 -159 -149v-420q0 -186 -125 -242q125 -57 125 -241v-494q0 -150 159 -149v-156q-182 0 -261 71t-79 212v518q0 162 -143 162z" />
<glyph unicode="|" horiz-adv-x="464" d="M143 -512v2048h181v-2048h-181z" />
<glyph unicode="}" horiz-adv-x="593" d="M66 -356q160 0 159 149v494q0 184 125 241q-125 55 -125 242v420q0 150 -159 149v156q182 0 261 -71t79 -212v-444q0 -162 143 -162v-155q-143 0 -143 -162v-518q0 -141 -79 -212t-261 -71v156z" />
<glyph unicode="~" horiz-adv-x="1112" d="M109 727q2 147 70 226q69 79 175 79t170 -37q66 -37 114 -73t105 -35t82 37t27 110h168q-10 -319 -252 -319q-84 0 -143 38q-59 37 -111 75t-113 38q-119 0 -125 -139h-167z" />
<glyph unicode="&#xa1;" horiz-adv-x="466" d="M133 0v483l41 627h119l43 -627v-483h-203zM133 1227v248h201v-248h-201z" />
<glyph unicode="&#xa2;" horiz-adv-x="952" d="M104 287v532q0 137 88 217t252 88v207h101v-207q151 -12 233 -92t82 -213v-160h-172v117q0 186 -202 186t-201 -186v-446q0 -186 204 -187q92 0 146 46q53 46 53 141v104h172v-147q0 -135 -82 -214t-233 -91v-248h-101v248q-164 8 -252 88t-88 217z" />
<glyph unicode="&#xa3;" horiz-adv-x="1054" d="M100 0v129q135 248 144 412h-138v157h121q-10 39 -40 125q-66 189 -66 344q0 154 98 241t283 87h41q195 0 305 -79t110 -220v-147h-180v79q0 111 -54 160t-175 49h-41q-111 0 -157 -53q-46 -54 -46 -158t50 -250t57 -178h276v-157h-264q-10 -184 -119 -385h653v-156h-858 z" />
<glyph unicode="&#xa4;" horiz-adv-x="1077" d="M82 1069l98 100l113 -116q68 29 158 28h174q92 0 159 -28l111 116l98 -100l-104 -108q14 -35 14 -68v-459q0 -27 -10 -57l92 -94l-98 -101l-92 94q-68 -31 -170 -30h-174q-104 0 -170 33l-91 -97l-100 101l94 98q-8 23 -8 53v459q0 37 12 65zM319 487q0 -106 158 -106 h123q84 0 121 26t37 80v355q0 55 -36 80t-122 24h-123q-158 0 -158 -104v-355z" />
<glyph unicode="&#xa5;" horiz-adv-x="1091" d="M39 1475h201l299 -752l301 752h200l-338 -785h213v-160h-280v-159h280v-160h-280v-211h-189v211h-280v160h280v159h-280v160h211z" />
<glyph unicode="&#xa6;" horiz-adv-x="466" d="M141 307h187v-819h-187v819zM141 717v819h187v-819h-187z" />
<glyph unicode="&#xa7;" horiz-adv-x="1110" d="M72 0h172v-80q0 -78 53 -106t158 -27q105 0 157 30t52 111v56q0 57 -41 90t-164 53l-131 20q-135 25 -186 81q-50 56 -50 192v59q0 193 209 244q-27 55 -27 151v72q0 127 96 195q96 67 270 67q175 0 272 -66t98 -188v-104h-172v78q0 72 -44 102t-146 31q-102 0 -148 -29 q-47 -29 -47 -92v-66q-1 -63 33 -88t139 -47l104 -20q177 -33 239 -89t62 -179v-66q0 -223 -205 -270q23 -51 23 -131v-41q0 -164 -93 -238t-293 -74t-295 66t-95 213v90zM270 420q0 -70 32 -92t149 -45l122 -21q16 -4 45 -8h35q98 0 147 28q48 28 48 101v55q0 53 -44 82 t-175 60l-62 12q-31 2 -100 2q-197 0 -197 -123v-51z" />
<glyph unicode="&#xa8;" horiz-adv-x="1001" d="M190 1167v224h201v-224h-201zM592 1167v224h201v-224h-201z" />
<glyph unicode="&#xa9;" horiz-adv-x="1480" d="M135 279v917q-1 133 101 206t280 73h451q175 0 277 -73t102 -206v-917q0 -133 -102 -206t-277 -73h-451q-178 0 -279 73t-102 206zM281 307q0 -178 256 -178h409q256 0 256 178v860q0 179 -256 179h-409q-256 0 -256 -179v-860zM483 496v467q0 90 70 140q71 50 187 50 t183 -50t66 -140v-142h-129v105q0 104 -121 104t-121 -104v-394q0 -104 123 -104q55 0 87 28t32 76v105h129v-141q0 -90 -66 -141q-67 -50 -184 -50t-187 50t-69 141z" />
<glyph unicode="&#xaa;" horiz-adv-x="776" d="M88 899v27q0 98 53 151t153 53t193 -28v155q0 27 -5 45q-13 48 -95 50q-98 0 -98 -95v-36h-160v71q0 94 66 150q67 56 197 55q130 0 197 -54t66 -151v-583h-143l-12 47q-96 -62 -202 -62t-158 54t-52 151zM254 897q0 -92 96 -92q82 0 137 37v151q-59 27 -135 27 q-98 0 -98 -92v-31z" />
<glyph unicode="&#xab;" horiz-adv-x="983" d="M76 528v121l231 346h178l-252 -405l-4 -2h4l252 -406h-178zM485 528v121l232 346h178l-252 -405l-4 -2h4l252 -406h-178z" />
<glyph unicode="&#xac;" horiz-adv-x="1075" d="M117 670v159h827v-280h-170v121h-657z" />
<glyph unicode="&#xad;" horiz-adv-x="901" d="M113 641v160h675v-160h-675z" />
<glyph unicode="&#xae;" horiz-adv-x="1480" d="M135 279v917q-1 133 101 206t280 73h451q175 0 277 -73t102 -206v-917q0 -133 -102 -206t-277 -73h-451q-178 0 -279 73t-102 206zM281 307q0 -178 256 -178h409q256 0 256 178v860q0 179 -256 179h-409q-256 0 -256 -179v-860zM498 332v801h223q270 0 270 -220v-86 q0 -143 -145 -182l153 -313h-153l-135 299h-78v-299h-135zM633 743h74q77 0 113 25t36 92v43q0 65 -36 91t-107 26h-80v-277z" />
<glyph unicode="&#xaf;" horiz-adv-x="1705" d="M0 1358v141h569v-141h-569z" />
<glyph unicode="&#xb0;" horiz-adv-x="772" d="M90 1126v115q0 123 76 189t219 66t219 -66t76 -189v-115q0 -254 -295 -254q-143 0 -219 66t-76 188zM240 1143q0 -133 146 -133t146 133v82q0 133 -146 133t-146 -133v-82z" />
<glyph unicode="&#xb1;" horiz-adv-x="1060" d="M113 -2v158h833v-158h-833zM113 698v158h340v338h155v-338h338v-158h-338v-338h-155v338h-340z" />
<glyph unicode="&#xb2;" horiz-adv-x="770" d="M76 451v71q0 270 184 404q27 20 83 56t88 60t59 65q28 42 28 89v43q0 117 -119 117h-34q-117 0 -117 -105v-92h-160v129q0 100 75 154t210 55h26q285 0 285 -240v-59q0 -110 -52 -180t-213 -168t-181 -260h462v-139h-624z" />
<glyph unicode="&#xb3;" horiz-adv-x="782" d="M70 645v121h157v-76q0 -104 125 -104h58q131 0 131 121v104q0 115 -131 115h-125v127h100q133 0 133 121v69q0 61 -26 87q-27 26 -86 26h-27q-121 0 -121 -107v-73h-156v116q0 98 73 152t206 53h27q274 0 274 -235v-88q0 -125 -123 -162q139 -41 139 -197v-108 q0 -143 -72 -207q-73 -63 -218 -64h-68q-137 0 -204 49t-66 160z" />
<glyph unicode="&#xb4;" horiz-adv-x="770" d="M152 1126l186 336h229l-286 -336h-129z" />
<glyph unicode="&#xb5;" horiz-adv-x="1017" d="M141 -512v1618h181v-784q0 -176 139 -177q96 0 235 80v881h181v-1106h-146l-16 78q-176 -98 -316 -98q-47 0 -77 8v-500h-181z" />
<glyph unicode="&#xb6;" horiz-adv-x="964" d="M76 860v432q0 182 211 183h528v-1713h-158v1573h-127v-1573h-157v916h-86q-102 0 -157 47q-54 47 -54 135z" />
<glyph unicode="&#xb7;" horiz-adv-x="442" d="M127 471v248h195v-248h-195z" />
<glyph unicode="&#xb8;" horiz-adv-x="770" d="M305 -332h113q61 0 84 16t22 54v8q0 41 -22 57q-23 16 -78 17h-66v196h103v-112h10q94 0 137 -40t43 -128t-53 -127t-186 -39h-107v98z" />
<glyph unicode="&#xb9;" horiz-adv-x="493" d="M45 1229v153l219 101h117v-1032h-166v841z" />
<glyph unicode="&#xba;" horiz-adv-x="784" d="M104 909v369q0 102 76 160t210 57q134 1 209 -57t75 -160v-369q0 -102 -75 -159q-75 -58 -209 -58t-210 58t-76 159zM268 950q0 -108 121 -108t121 108v287q0 109 -121 109t-121 -109v-287z" />
<glyph unicode="&#xbb;" horiz-adv-x="983" d="M88 182l252 406h4l-4 2l-252 405h178l232 -346v-121l-232 -346h-178zM498 182l252 406h4l-4 2l-252 405h178l231 -346v-121l-231 -346h-178z" />
<glyph unicode="&#xbc;" horiz-adv-x="1812" d="M53 1229v153l219 101h117v-1032h-166v841zM406 -41l688 1557h161l-682 -1557h-167zM1065 199v112l418 721h145v-694h125v-139h-125v-199h-168v199h-395zM1237 338h223v397z" />
<glyph unicode="&#xbd;" horiz-adv-x="1871" d="M53 1229v153l219 101h117v-1032h-166v841zM406 -41l688 1557h161l-682 -1557h-167zM1167 0v72q0 270 185 403q27 20 83 56t88 60q31 23 59 65t28 89v43q0 117 -119 117h-35q-117 0 -117 -104v-92h-159v129q0 100 74 154q75 54 210 55h27q285 0 285 -240v-59 q0 -109 -52 -180t-214 -169q-160 -98 -181 -260h463v-139h-625z" />
<glyph unicode="&#xbe;" horiz-adv-x="2017" d="M78 645v121h158v-76q0 -104 124 -104h58q131 0 131 121v104q0 115 -131 115h-125v127h100q133 0 133 121v69q0 61 -26 87q-27 26 -86 26h-27q-121 0 -121 -107v-73h-155v116q0 98 72 152q73 53 206 53h27q274 0 274 -235v-88q0 -125 -123 -162q139 -41 140 -197v-108 q0 -143 -73 -207t-218 -64h-68q-137 0 -204 49t-66 160zM610 -41l688 1557h162l-682 -1557h-168zM1270 199v112l418 721h145v-694h125v-139h-125v-199h-168v199h-395zM1442 338h223v397z" />
<glyph unicode="&#xbf;" horiz-adv-x="993" d="M145 94q-1 121 49 175q50 55 160 99t136 84t26 101v199h180v-240q0 -102 -43 -158t-146 -93q-103 -38 -139 -81t-36 -121v-159q0 -190 190 -191h37q193 0 193 191v139h182v-184q0 -147 -101 -225t-274 -76h-37q-174 0 -275 76t-102 223v241zM479 891v248h195v-248h-195z " />
<glyph unicode="&#xc0;" horiz-adv-x="1138" d="M25 0l436 1475h217l436 -1475h-190l-97 340h-518l-94 -340h-190zM233 1890h230l199 -336h-130zM356 508h424l-211 756z" />
<glyph unicode="&#xc1;" horiz-adv-x="1138" d="M25 0l436 1475h217l436 -1475h-190l-97 340h-518l-94 -340h-190zM356 508h424l-211 756zM500 1554l186 336h229l-286 -336h-129z" />
<glyph unicode="&#xc2;" horiz-adv-x="1138" d="M25 0l436 1475h217l436 -1475h-190l-97 340h-518l-94 -340h-190zM236 1554l268 293h137l268 -293h-174l-162 172l-163 -172h-174zM356 508h424l-211 756z" />
<glyph unicode="&#xc3;" horiz-adv-x="1138" d="M25 0l436 1475h217l436 -1475h-190l-97 340h-518l-94 -340h-190zM270 1552q2 113 52 178q50 64 125 64q77 0 141 -51t80 -51q59 0 59 104h135q-2 -115 -49 -178q-47 -64 -121 -64t-138 52q-62 52 -87 53q-61 0 -66 -107h-131zM356 508h424l-211 756z" />
<glyph unicode="&#xc4;" horiz-adv-x="1138" d="M25 0l436 1475h217l436 -1475h-190l-97 340h-518l-94 -340h-190zM274 1554v224h201v-224h-201zM356 508h424l-211 756zM676 1554v224h201v-224h-201z" />
<glyph unicode="&#xc5;" horiz-adv-x="1138" d="M25 0l436 1475h217l436 -1475h-190l-97 340h-518l-94 -340h-190zM340 1765v68q0 188 236 188t235 -188v-68q0 -186 -236 -186t-235 186zM356 508h424l-211 756zM465 1796q0 -111 110 -110q111 0 111 110v8q0 111 -111 111t-110 -111v-8z" />
<glyph unicode="&#xc6;" horiz-adv-x="1679" d="M6 0l774 1475h819v-160h-559v-473h437v-160h-437v-522h559v-160h-747v342h-471l-176 -342h-199zM463 502h389v751z" />
<glyph unicode="&#xc7;" horiz-adv-x="1132" d="M135 299v877q0 152 119 236t323 83q205 0 321 -84t116 -235v-234h-178v191q0 94 -69 144t-187 50q-254 0 -254 -194v-791q0 -102 61 -148t193 -47q256 0 256 195v190h178v-233q0 -133 -94 -216t-261 -99v-80h11q94 0 137 -40t43 -128t-53 -127t-187 -39h-106v98h112 q61 0 84 16t23 54v8q0 41 -23 57t-77 17h-66v160q-197 4 -309 88t-113 231z" />
<glyph unicode="&#xc8;" d="M152 0v1475h747v-160h-557v-473h436v-160h-436v-522h557v-160h-747zM195 1890h229l199 -336h-129z" />
<glyph unicode="&#xc9;" d="M152 0v1475h747v-160h-557v-473h436v-160h-436v-522h557v-160h-747zM424 1554l186 336h230l-287 -336h-129z" />
<glyph unicode="&#xca;" d="M152 0v1475h747v-160h-557v-473h436v-160h-436v-522h557v-160h-747zM197 1554l268 293h137l268 -293h-174l-161 172l-164 -172h-174z" />
<glyph unicode="&#xcb;" d="M152 0v1475h747v-160h-557v-473h436v-160h-436v-522h557v-160h-747zM213 1554v248h195v-248h-195zM664 1554v248h194v-248h-194z" />
<glyph unicode="&#xcc;" horiz-adv-x="493" d="M-94 1890h229l199 -336h-129zM152 0v1475h190v-1475h-190z" />
<glyph unicode="&#xcd;" horiz-adv-x="493" d="M135 1554l187 336h229l-287 -336h-129zM152 0v1475h190v-1475h-190z" />
<glyph unicode="&#xce;" horiz-adv-x="493" d="M-92 1554l268 293h137l269 -293h-174l-162 172l-164 -172h-174zM152 0v1475h190v-1475h-190z" />
<glyph unicode="&#xcf;" horiz-adv-x="493" d="M-76 1554v248h195v-248h-195zM152 0v1475h190v-1475h-190zM375 1554v248h194v-248h-194z" />
<glyph unicode="&#xd0;" horiz-adv-x="1206" d="M39 649v160h131v666h369q283 -1 413 -107t129 -315v-672q0 -199 -122 -290t-400 -91h-389v649h-131zM360 168h199q172 0 256 54t84 190v626q0 127 -90 198t-270 71l-179 -2v-496h213v-160h-213v-481z" />
<glyph unicode="&#xd1;" horiz-adv-x="1236" d="M152 0v1475h153l608 -1076l-2 76v1000h174v-1475h-153l-608 1071l2 -53v-1018h-174zM328 1552q2 113 51 178q49 64 125 64t140 -51t81 -51q59 0 59 104h136q-2 -115 -50 -178q-48 -64 -122 -64t-136 52t-88 53q-61 0 -65 -107h-131z" />
<glyph unicode="&#xd2;" horiz-adv-x="1175" d="M135 319v836q0 162 119 251t333 89t334 -89t119 -251v-836q0 -163 -120 -251t-333 -88q-214 0 -333 89t-119 250zM248 1911h229l199 -336h-129zM326 375q0 -121 62 -174t198 -53t200 52q63 54 64 175v725q0 121 -64 174t-199 53q-137 0 -199 -53t-62 -174v-725z" />
<glyph unicode="&#xd3;" horiz-adv-x="1175" d="M135 319v836q0 162 119 251t333 89t334 -89t119 -251v-836q0 -163 -120 -251t-333 -88q-214 0 -333 89t-119 250zM326 375q0 -121 62 -174t198 -53t200 52q63 54 64 175v725q0 121 -64 174t-199 53q-137 0 -199 -53t-62 -174v-725zM514 1575l186 336h230l-287 -336h-129z " />
<glyph unicode="&#xd4;" horiz-adv-x="1175" d="M135 319v836q0 162 119 251t333 89t334 -89t119 -251v-836q0 -163 -120 -251t-333 -88q-214 0 -333 89t-119 250zM250 1575l268 293h137l269 -293h-174l-162 172l-164 -172h-174zM326 375q0 -121 62 -174t198 -53t200 52q63 54 64 175v725q0 121 -64 174t-199 53 q-137 0 -199 -53t-62 -174v-725z" />
<glyph unicode="&#xd5;" horiz-adv-x="1175" d="M135 319v836q0 162 119 251t333 89t334 -89t119 -251v-836q0 -163 -120 -251t-333 -88q-214 0 -333 89t-119 250zM326 375q0 -121 62 -174t198 -53t200 52q63 54 64 175v725q0 121 -64 174t-199 53q-137 0 -199 -53t-62 -174v-725zM326 1585q2 113 51 177t125 65 q76 0 140 -51t81 -52q59 1 59 105h136q-2 -115 -50 -178t-122 -63t-136 51q-62 52 -88 53q-61 0 -65 -107h-131z" />
<glyph unicode="&#xd6;" horiz-adv-x="1175" d="M135 319v836q0 162 119 251t333 89t334 -89t119 -251v-836q0 -163 -120 -251t-333 -88q-214 0 -333 89t-119 250zM268 1575v248h195v-248h-195zM326 375q0 -121 62 -174t198 -53t200 52q63 54 64 175v725q0 121 -64 174t-199 53q-137 0 -199 -53t-62 -174v-725zM719 1575 v248h194v-248h-194z" />
<glyph unicode="&#xd7;" horiz-adv-x="892" d="M96 500l240 239l-240 240l111 111l239 -240l240 240l111 -111l-240 -240l240 -239l-111 -111l-240 240l-239 -240z" />
<glyph unicode="&#xd8;" horiz-adv-x="1175" d="M90 -35l96 172q-51 80 -51 182v836q0 162 119 251t326 89t325 -80l60 105h116l-98 -177q57 -80 57 -188v-836q0 -163 -120 -251t-328 -88q-209 0 -328 81l-53 -96h-121zM326 383l485 864q-59 80 -209 80t-214 -53q-62 -53 -62 -174v-717zM360 231q55 -84 209 -84 q153 -1 217 53t64 175v731z" />
<glyph unicode="&#xd9;" horiz-adv-x="1191" d="M143 332v1143h191v-1096q0 -231 262 -231t262 231v1096h191v-1143q0 -166 -121 -259t-331 -93t-332 93t-122 259zM256 1890h229l199 -336h-129z" />
<glyph unicode="&#xda;" horiz-adv-x="1191" d="M143 332v1143h191v-1096q0 -231 262 -231t262 231v1096h191v-1143q0 -166 -121 -259t-331 -93t-332 93t-122 259zM522 1554l187 336h229l-287 -336h-129z" />
<glyph unicode="&#xdb;" horiz-adv-x="1191" d="M143 332v1143h191v-1096q0 -231 262 -231t262 231v1096h191v-1143q0 -166 -121 -259t-331 -93t-332 93t-122 259zM258 1554l268 293h138l268 -293h-174l-162 172l-164 -172h-174z" />
<glyph unicode="&#xdc;" horiz-adv-x="1191" d="M143 332v1143h191v-1096q0 -231 262 -231t262 231v1096h191v-1143q0 -166 -121 -259t-331 -93t-332 93t-122 259zM295 1554v224h201v-224h-201zM696 1554v224h201v-224h-201z" />
<glyph unicode="&#xdd;" horiz-adv-x="1081" d="M39 1475h201l299 -752l301 752h200l-405 -945v-530h-189v530zM465 1554l186 336h230l-287 -336h-129z" />
<glyph unicode="&#xde;" horiz-adv-x="1069" d="M152 -369v1844h186v-361h209q197 0 307 -86t111 -254v-434q0 -170 -111 -255t-307 -85h-209v-369h-186zM338 160h209q236 0 235 202v390q1 202 -235 202h-209v-794z" />
<glyph unicode="&#xdf;" horiz-adv-x="1067" d="M131 0v1229q0 174 96 252q97 78 287 78t294 -78t103 -236v-151q0 -158 -131 -213q193 -76 193 -316v-233q-1 -166 -107 -249t-299 -83h-129v160h129q223 0 224 209v178q0 238 -199 237h-154v127h6v19h111q174 0 174 188v86q0 195 -186 195h-27q-195 0 -194 -203v-1196 h-191z" />
<glyph unicode="&#xe0;" horiz-adv-x="946" d="M76 266v49q0 295 332 295h233v205q0 82 -42 119t-131 37t-127 -37t-38 -119v-57h-172v82q0 286 345 286t345 -286v-848h-149l-19 78q-131 -82 -283 -82t-224 70q-70 71 -70 208zM123 1583h229l199 -336h-129zM260 276q0 -143 154 -143q135 0 227 62v276h-201 q-94 0 -137 -35t-43 -114v-46z" />
<glyph unicode="&#xe1;" horiz-adv-x="946" d="M76 266v49q0 295 332 295h233v205q0 82 -42 119t-131 37t-127 -37t-38 -119v-57h-172v82q0 286 345 286t345 -286v-848h-149l-19 78q-131 -82 -283 -82t-224 70q-70 71 -70 208zM260 276q0 -143 154 -143q135 0 227 62v276h-201q-94 0 -137 -35t-43 -114v-46zM389 1247 l186 336h230l-287 -336h-129z" />
<glyph unicode="&#xe2;" horiz-adv-x="946" d="M76 266v49q0 295 332 295h233v205q0 82 -42 119t-131 37t-127 -37t-38 -119v-57h-172v82q0 286 345 286t345 -286v-848h-149l-19 78q-131 -82 -283 -82t-224 70q-70 71 -70 208zM125 1247l268 293h137l269 -293h-174l-162 172l-164 -172h-174zM260 276q0 -143 154 -143 q135 0 227 62v276h-201q-94 0 -137 -35t-43 -114v-46z" />
<glyph unicode="&#xe3;" horiz-adv-x="946" d="M76 266v49q0 295 332 295h233v205q0 82 -42 119t-131 37t-127 -37t-38 -119v-57h-172v82q0 286 345 286t345 -286v-848h-149l-19 78q-131 -82 -283 -82t-224 70q-70 71 -70 208zM160 1245q2 113 51 177t125 65q76 0 140 -51t81 -52q59 1 59 105h136q-2 -115 -50 -178 t-122 -63t-136 51q-62 52 -88 53q-61 0 -65 -107h-131zM260 276q0 -143 154 -143q135 0 227 62v276h-201q-94 0 -137 -35t-43 -114v-46z" />
<glyph unicode="&#xe4;" horiz-adv-x="946" d="M76 266v49q0 295 332 295h233v205q0 82 -42 119t-131 37t-127 -37t-38 -119v-57h-172v82q0 286 345 286t345 -286v-848h-149l-19 78q-131 -82 -283 -82t-224 70q-70 71 -70 208zM162 1247v223h200v-223h-200zM260 276q0 -143 154 -143q135 0 227 62v276h-201 q-94 0 -137 -35t-43 -114v-46zM563 1247v223h201v-223h-201z" />
<glyph unicode="&#xe5;" horiz-adv-x="946" d="M76 266v49q0 295 332 295h233v205q0 82 -42 119t-131 37t-127 -37t-38 -119v-57h-172v82q0 286 345 286t345 -286v-848h-149l-19 78q-131 -82 -283 -82t-224 70q-70 71 -70 208zM260 276q0 -143 154 -143q135 0 227 62v276h-201q-94 0 -137 -35t-43 -114v-46zM268 1458 v68q0 188 236 188t235 -188v-68q1 -186 -235 -186t-236 186zM393 1489q0 -111 111 -111t110 111v8q0 111 -110 111t-111 -111v-8z" />
<glyph unicode="&#xe6;" horiz-adv-x="1507" d="M72 266v49q0 139 78 213t222 74t269 -51v256q0 164 -169 164t-169 -164v-49h-172v82q0 137 86 212q87 74 271 74t272 -104q86 104 263 104t279 -84t103 -235v-328h-584v-145q0 -104 47 -152t150 -47q207 0 207 199v35h180v-70q0 -152 -102 -236q-103 -83 -283 -83 t-266 110q-178 -111 -385 -110q-145 0 -222 74q-76 75 -75 212zM262 268q0 -149 150 -149q127 0 229 53v242q-93 49 -199 49t-143 -35t-37 -115v-45zM821 625h404v147q0 199 -207 199q-98 0 -146 -42t-51 -136v-168z" />
<glyph unicode="&#xe7;" horiz-adv-x="972" d="M113 287v532q0 147 100 227q101 80 281 80t277 -80t97 -227v-160h-172v117q0 186 -202 186t-201 -186v-446q0 -186 205 -187q92 0 145 46t53 141v104h172v-147q0 -139 -89 -219t-251 -86v-78h11q94 0 137 -40t43 -128t-53 -127t-187 -39h-106v98h112q61 0 84 16t23 54v8 q0 41 -23 57t-77 17h-66v164q-152 14 -232 92t-81 211z" />
<glyph unicode="&#xe8;" d="M113 299v508q0 151 98 235t279 84q182 0 284 -84t103 -235v-328h-584v-145q0 -104 47 -152t149 -47q207 0 207 199v35h181v-70q-1 -152 -103 -236q-102 -83 -284 -83t-279 84q-98 84 -98 235zM150 1583h229l199 -336h-129zM293 625h403v147q0 199 -207 199 q-102 1 -149 -47t-47 -152v-147z" />
<glyph unicode="&#xe9;" d="M113 299v508q0 151 98 235t279 84q182 0 284 -84t103 -235v-328h-584v-145q0 -104 47 -152t149 -47q207 0 207 199v35h181v-70q-1 -152 -103 -236q-102 -83 -284 -83t-279 84q-98 84 -98 235zM293 625h403v147q0 199 -207 199q-102 1 -149 -47t-47 -152v-147zM414 1247 l186 336h229l-286 -336h-129z" />
<glyph unicode="&#xea;" d="M113 299v508q0 151 98 235t279 84q182 0 284 -84t103 -235v-328h-584v-145q0 -104 47 -152t149 -47q207 0 207 199v35h181v-70q-1 -152 -103 -236q-102 -83 -284 -83t-279 84q-98 84 -98 235zM152 1247l268 293h137l268 -293h-174l-162 172l-163 -172h-174zM293 625h403 v147q0 199 -207 199q-102 1 -149 -47t-47 -152v-147z" />
<glyph unicode="&#xeb;" d="M113 299v508q0 151 98 235t279 84q182 0 284 -84t103 -235v-328h-584v-145q0 -104 47 -152t149 -47q207 0 207 199v35h181v-70q-1 -152 -103 -236q-102 -83 -284 -83t-279 84q-98 84 -98 235zM188 1247v223h201v-223h-201zM293 625h403v147q0 199 -207 199 q-102 1 -149 -47t-47 -152v-147zM590 1247v223h201v-223h-201z" />
<glyph unicode="&#xec;" horiz-adv-x="448" d="M-117 1563h230l198 -336h-129zM133 0v1106h180v-1106h-180z" />
<glyph unicode="&#xed;" horiz-adv-x="448" d="M133 0v1106h180v-1106h-180zM150 1227l186 336h229l-286 -336h-129z" />
<glyph unicode="&#xee;" horiz-adv-x="448" d="M-115 1227l269 293h137l268 -293h-174l-162 172l-164 -172h-174zM133 0v1106h180v-1106h-180z" />
<glyph unicode="&#xef;" horiz-adv-x="448" d="M-76 1227v223h201v-223h-201zM133 0v1106h180v-1106h-180zM326 1227v223h200v-223h-200z" />
<glyph unicode="&#xf0;" horiz-adv-x="983" d="M88 299v350q0 131 91 205t243 74t242 -80q-39 184 -129 334l-164 -123l-92 123l170 127q-25 29 -113 123l147 110q66 -57 119 -121l141 107l93 -119l-144 -109q184 -299 185 -753v-248q1 -152 -105 -236q-106 -83 -290 -83t-289 84q-104 84 -105 235zM272 342 q0 -94 54 -146t155 -53q211 0 211 199v229q-4 103 -57 151t-164 48q-199 0 -199 -172v-256z" />
<glyph unicode="&#xf1;" horiz-adv-x="1011" d="M131 0v1114h145l23 -94q189 106 323 106q264 0 263 -280v-846h-180v797q0 164 -138 164q-98 -1 -256 -93v-868h-180zM246 1227q2 113 51 177t125 64t140 -51t81 -51q59 0 59 104h136q-2 -115 -50 -178t-122 -63t-136 52t-88 52q-61 0 -65 -106h-131z" />
<glyph unicode="&#xf2;" horiz-adv-x="987" d="M113 287v532q0 145 99 227q98 82 282 80q184 0 284 -81t99 -226v-532q1 -145 -99 -227t-283 -80q-183 0 -283 80q-99 81 -99 227zM141 1583h230l198 -336h-129zM293 330q0 -186 202 -186t201 186v446q0 186 -202 186t-201 -186v-446z" />
<glyph unicode="&#xf3;" horiz-adv-x="987" d="M113 287v532q0 145 99 227q98 82 282 80q184 0 284 -81t99 -226v-532q1 -145 -99 -227t-283 -80q-183 0 -283 80q-99 81 -99 227zM293 330q0 -186 202 -186t201 186v446q0 186 -202 186t-201 -186v-446zM408 1247l186 336h229l-286 -336h-129z" />
<glyph unicode="&#xf4;" horiz-adv-x="987" d="M113 287v532q0 145 99 227q98 82 282 80q184 0 284 -81t99 -226v-532q1 -145 -99 -227t-283 -80q-183 0 -283 80q-99 81 -99 227zM143 1247l269 293h137l268 -293h-174l-162 172l-164 -172h-174zM293 330q0 -186 202 -186t201 186v446q0 186 -202 186t-201 -186v-446z " />
<glyph unicode="&#xf5;" horiz-adv-x="987" d="M113 287v532q0 145 99 227q98 82 282 80q184 0 284 -81t99 -226v-532q1 -145 -99 -227t-283 -80q-183 0 -283 80q-99 81 -99 227zM213 1227q2 113 51 177t125 64q77 0 141 -51t80 -51q60 0 60 104h135q-2 -115 -49 -178q-48 -63 -122 -63t-136 52t-88 52q-61 0 -66 -106 h-131zM293 330q0 -186 202 -186t201 186v446q0 186 -202 186t-201 -186v-446z" />
<glyph unicode="&#xf6;" horiz-adv-x="987" d="M113 287v532q0 145 99 227q98 82 282 80q184 0 284 -81t99 -226v-532q1 -145 -99 -227t-283 -80q-183 0 -283 80q-99 81 -99 227zM182 1247v223h201v-223h-201zM293 330q0 -186 202 -186t201 186v446q0 186 -202 186t-201 -186v-446zM584 1247v223h200v-223h-200z" />
<glyph unicode="&#xf7;" horiz-adv-x="1036" d="M100 461v157h834v-157h-834zM422 0v248h194v-248h-194zM422 807v248h194v-248h-194z" />
<glyph unicode="&#xf8;" horiz-adv-x="987" d="M74 -45l88 158q-49 72 -49 174v532q0 145 99 227t284 80q125 0 213 -41l41 72h141l-80 -143q66 -78 66 -195v-532q1 -145 -99 -227t-262 -80q-162 0 -254 47l-41 -72h-147zM293 344l330 590q-51 29 -127 29q-203 -1 -203 -187v-432zM348 182q51 -39 148 -39 q201 0 200 187v446q0 18 -2 29z" />
<glyph unicode="&#xf9;" horiz-adv-x="993" d="M127 272v834h180v-784q0 -176 139 -177q96 0 236 80v881h180v-1106h-145l-17 78q-176 -98 -309 -98t-199 76t-65 216zM152 1563h229l199 -336h-129z" />
<glyph unicode="&#xfa;" horiz-adv-x="993" d="M127 272v834h180v-784q0 -176 139 -177q96 0 236 80v881h180v-1106h-145l-17 78q-176 -98 -309 -98t-199 76t-65 216zM418 1227l186 336h230l-287 -336h-129z" />
<glyph unicode="&#xfb;" horiz-adv-x="993" d="M127 272v834h180v-784q0 -176 139 -177q96 0 236 80v881h180v-1106h-145l-17 78q-176 -98 -309 -98t-199 76t-65 216zM154 1227l268 293h137l268 -293h-174l-161 172l-164 -172h-174z" />
<glyph unicode="&#xfc;" horiz-adv-x="993" d="M127 272v834h180v-784q0 -176 139 -177q96 0 236 80v881h180v-1106h-145l-17 78q-176 -98 -309 -98t-199 76t-65 216zM190 1227v223h201v-223h-201zM592 1227v223h201v-223h-201z" />
<glyph unicode="&#xfd;" horiz-adv-x="944" d="M39 1106h199l241 -881l232 881h198l-346 -1133q-70 -219 -160 -289t-223 -71q-74 0 -110 10v156q32 -10 102 -10t125 48t92 179v4zM420 1227l186 336h230l-287 -336h-129z" />
<glyph unicode="&#xfe;" horiz-adv-x="1015" d="M131 -369v1844h186v-447q182 98 299 98q283 0 283 -295v-526q0 -151 -75 -235q-74 -84 -228 -84t-279 88v-443h-186zM317 231q113 -82 242 -81q160 0 160 194v449q-1 170 -148 170q-80 0 -254 -93v-639z" />
<glyph unicode="&#xff;" horiz-adv-x="944" d="M39 1106h199l241 -881l232 881h198l-346 -1133q-70 -219 -160 -289t-223 -71q-74 0 -110 10v156q32 -10 102 -10t125 48t92 179v4zM193 1227v223h200v-223h-200zM594 1227v223h201v-223h-201z" />
<glyph unicode="&#x152;" horiz-adv-x="1677" d="M135 319v836q0 162 119 251q120 89 308 89t288 -72v52h747v-160h-557v-473h437v-160h-437v-522h557v-160h-747v49q-100 -70 -262 -69q-215 0 -334 89t-119 250zM326 375q0 -121 62 -174t198 -53t198 50q63 50 66 164v738q0 121 -64 174t-199 53q-137 0 -199 -53t-62 -174 v-725z" />
<glyph unicode="&#x153;" horiz-adv-x="1546" d="M113 287v532q0 145 99 227q100 82 284 80q184 0 284 -84q96 84 278 84t283 -84q102 -84 103 -235v-328h-567v-192q0 -16 -5 -49q39 -102 185 -103q207 0 207 199v35h180v-70q0 -152 -102 -236q-102 -83 -283 -83q-180 0 -279 81q-100 -81 -284 -81t-284 80 q-99 81 -99 227zM293 330q0 -186 203 -187q147 0 186 103q-2 16 -2 53v508q0 35 2 53q-37 102 -186 103q-203 -1 -203 -187v-446zM872 866q5 -29 5 -47v-194h387v147q0 199 -207 199q-145 0 -185 -105z" />
<glyph unicode="&#x178;" horiz-adv-x="1081" d="M39 1475h201l299 -752l301 752h200l-405 -945v-530h-189v530zM238 1554v224h200v-224h-200zM639 1554v224h201v-224h-201z" />
<glyph unicode="&#x2c6;" horiz-adv-x="1095" d="M195 1126l268 293h137l268 -293h-174l-162 172l-163 -172h-174z" />
<glyph unicode="&#x2dc;" horiz-adv-x="886" d="M150 1176q2 114 51 178t125 64t140 -52q64 -51 81 -51q59 0 59 104h135q-2 -115 -49 -178q-48 -63 -122 -63t-136 52t-88 52q-61 0 -65 -106h-131z" />
<glyph unicode="&#x2000;" horiz-adv-x="1010" />
<glyph unicode="&#x2001;" horiz-adv-x="2021" />
<glyph unicode="&#x2002;" horiz-adv-x="1010" />
<glyph unicode="&#x2003;" horiz-adv-x="2021" />
<glyph unicode="&#x2004;" horiz-adv-x="673" />
<glyph unicode="&#x2005;" horiz-adv-x="505" />
<glyph unicode="&#x2006;" horiz-adv-x="336" />
<glyph unicode="&#x2007;" horiz-adv-x="336" />
<glyph unicode="&#x2008;" horiz-adv-x="252" />
<glyph unicode="&#x2009;" horiz-adv-x="404" />
<glyph unicode="&#x200a;" horiz-adv-x="112" />
<glyph unicode="&#x2010;" horiz-adv-x="901" d="M113 641v160h675v-160h-675z" />
<glyph unicode="&#x2011;" horiz-adv-x="901" d="M113 641v160h675v-160h-675z" />
<glyph unicode="&#x2012;" horiz-adv-x="901" d="M113 641v160h675v-160h-675z" />
<glyph unicode="&#x2013;" horiz-adv-x="954" d="M113 684v158h729v-158h-729z" />
<glyph unicode="&#x2014;" horiz-adv-x="1058" d="M113 684v158h833v-158h-833z" />
<glyph unicode="&#x2018;" horiz-adv-x="436" d="M90 1014l164 461h123l-70 -461h-217z" />
<glyph unicode="&#x2019;" horiz-adv-x="436" d="M59 1014l70 461h217l-164 -461h-123z" />
<glyph unicode="&#x201a;" horiz-adv-x="438" d="M59 -211l70 461h217l-164 -461h-123z" />
<glyph unicode="&#x201c;" horiz-adv-x="718" d="M90 1014l164 461h123l-70 -461h-217zM373 1014l164 461h122l-69 -461h-217z" />
<glyph unicode="&#x201d;" horiz-adv-x="718" d="M59 1014l70 461h217l-164 -461h-123zM342 1014l70 461h217l-164 -461h-123z" />
<glyph unicode="&#x201e;" horiz-adv-x="720" d="M59 -211l70 461h217l-164 -461h-123zM342 -211l70 461h217l-164 -461h-123z" />
<glyph unicode="&#x2022;" horiz-adv-x="616" d="M147 596q-1 61 47 103t114 42t114 -43q47 -43 47 -103t-47 -102t-115 -42t-114 42t-46 103z" />
<glyph unicode="&#x2026;" horiz-adv-x="1325" d="M117 0v248h194v-248h-194zM567 0v248h195v-248h-195zM1018 0v248h194v-248h-194z" />
<glyph unicode="&#x202f;" horiz-adv-x="404" />
<glyph unicode="&#x2039;" horiz-adv-x="573" d="M76 528v121l231 346h178l-252 -405l-4 -2h4l252 -406h-178z" />
<glyph unicode="&#x203a;" horiz-adv-x="573" d="M88 182l252 406h4l-4 2l-252 405h178l232 -346v-121l-232 -346h-178z" />
<glyph unicode="&#x205f;" horiz-adv-x="505" />
<glyph unicode="&#x20ac;" horiz-adv-x="1222" d="M74 547v135h159v100h-159v136h159v258q0 152 119 236t323 83q205 0 321 -84t116 -235v-234h-178v191q0 94 -69 144t-187 50q-254 0 -254 -194v-215h215v-136h-215v-100h215v-135h-215v-205q0 -102 61 -148t193 -47q256 0 256 195v190h178v-233q0 -152 -119 -236 q-119 -83 -323 -83t-320 84q-117 84 -117 235v248h-159z" />
<glyph unicode="&#x2122;" horiz-adv-x="1482" d="M57 1350v125h572v-125h-217v-738h-138v738h-217zM686 612v863h125l207 -453l207 453h127v-863h-138v529l-141 -289h-108l-142 289v-529h-137z" />
<glyph unicode="&#x25fc;" horiz-adv-x="1105" d="M0 0v1105h1105v-1105h-1105z" />
</font>
</defs>
</svg>
