<?xml version="1.0" standalone="no"?>
<!DOCTYPE svg PUBLIC "-//W3C//DTD SVG 1.1//EN" "http://www.w3.org/Graphics/SVG/1.1/DTD/svg11.dtd" >
<svg xmlns="http://www.w3.org/2000/svg">
<metadata></metadata>
<defs>
<font id="ginesonorm_book" horiz-adv-x="1161" >
<font-face units-per-em="2048" ascent="1638" descent="-410" />
<missing-glyph horiz-adv-x="411" />
<glyph horiz-adv-x="0" />
<glyph horiz-adv-x="682" />
<glyph horiz-adv-x="0" />
<glyph horiz-adv-x="0" />
<glyph unicode="&#xd;" horiz-adv-x="681" />
<glyph unicode=" "  horiz-adv-x="411" />
<glyph unicode="&#x09;" horiz-adv-x="411" />
<glyph unicode="&#xa0;" horiz-adv-x="411" />
<glyph unicode="!" horiz-adv-x="436" d="M145 950v525h148v-525l-31 -618h-90zM147 0v209h144v-209h-144z" />
<glyph unicode="&#x22;" horiz-adv-x="630" d="M100 1475h170l-45 -500h-80zM358 1475h170l-45 -500h-80z" />
<glyph unicode="#" horiz-adv-x="1177" d="M72 434v105h233l43 387h-211v104h221l52 445h110l-49 -445h301l51 445h111l-51 -445h219v-104h-230l-43 -387h209v-105h-221l-47 -434h-113l50 434h-301l-48 -434h-112l47 434h-221zM418 539h299l45 387h-303z" />
<glyph unicode="$" horiz-adv-x="1030" d="M102 279v165h140v-133q0 -117 51 -161t168 -46h96q129 0 188 43t60 183v116q0 94 -46 152t-161 82l-207 45q-141 31 -204 101q-62 71 -62 237v98q0 303 303 332v186h68v-184h51v184h67v-190q135 -16 210 -93t75 -200v-164h-137v139q0 203 -232 203h-43q-115 0 -168 -50 t-53 -173v-78q0 -115 33 -155t145 -68l197 -45q168 -37 236 -121t67 -240v-116q0 -324 -330 -346v-187h-67v185h-51v-185h-68v185q-164 6 -245 76t-81 223z" />
<glyph unicode="%" horiz-adv-x="2052" d="M104 768v500q0 106 80 168t216 61q136 1 215 -61t79 -168v-500q0 -106 -79 -168t-215 -61q-136 0 -216 61t-80 168zM221 784q0 -66 45 -104t133 -37q178 0 179 141v467q0 141 -178 141t-179 -141v-467zM596 -41l688 1557h123l-686 -1557h-125zM1313 207v500q0 106 80 167 q80 62 216 62t215 -62t79 -167v-500q0 -105 -79 -167t-215 -62t-216 60q-80 62 -80 169zM1430 223q0 -65 45 -103t132 -38t132 38t45 103v467q0 141 -177 141t-177 -141v-467z" />
<glyph unicode="&#x26;" horiz-adv-x="1255" d="M119 326v194q0 207 186 268q-170 66 -170 254v140q0 156 94 234t269 79h73q179 0 275 -74t96 -209v-180h-137v158q0 184 -234 184h-73q-223 0 -224 -200v-125q0 -211 258 -211h666v-117h-242v-430q0 -311 -356 -311h-102q-190 0 -285 80q-94 81 -94 266zM256 319 q0 -121 62 -169t184 -50h96q113 0 167 47t54 154v420h-332q-231 0 -231 -205v-197z" />
<glyph unicode="'" horiz-adv-x="372" d="M100 1475h170l-45 -500h-80z" />
<glyph unicode="(" horiz-adv-x="589" d="M98 580q0 508 299 948h154q-157 -262 -231 -468t-74 -480t75 -480t230 -469h-154q-299 441 -299 949z" />
<glyph unicode=")" horiz-adv-x="589" d="M39 -369q157 263 231 469t74 480t-75 480t-230 468h154q299 -440 299 -948t-299 -949h-154z" />
<glyph unicode="*" horiz-adv-x="911" d="M109 965l297 120l-295 121l67 119l252 -197l-43 318h137l-43 -318l252 195l70 -117l-299 -121l297 -120l-68 -119l-252 194l43 -315h-137l43 317l-252 -194z" />
<glyph unicode="+" horiz-adv-x="960" d="M84 774v117h338v338h117v-338h338v-117h-338v-340h-117v340h-338z" />
<glyph unicode="," horiz-adv-x="399" d="M63 -207l74 416h160l-143 -416h-91z" />
<glyph unicode="-" horiz-adv-x="888" d="M119 684v121h651v-121h-651z" />
<glyph unicode="." horiz-adv-x="380" d="M119 0v209h143v-209h-143z" />
<glyph unicode="/" horiz-adv-x="1048" d="M35 -57l831 1589h148l-830 -1589h-149z" />
<glyph unicode="0" horiz-adv-x="1052" d="M141 299v877q1 152 103 236t281 83q179 1 283 -83t103 -236v-877q0 -152 -103 -236q-102 -83 -282 -83t-282 84t-103 235zM281 313q0 -95 63 -153t182 -58q118 0 182 58t64 153v848q0 95 -63 153t-183 58t-182 -57q-63 -57 -63 -154v-848z" />
<glyph unicode="1" horiz-adv-x="634" d="M84 1194v125l299 156h92v-1475h-131v1323z" />
<glyph unicode="2" horiz-adv-x="952" d="M106 0v68q-4 225 72 382t258 273q66 39 101 65q109 79 142 165q19 52 19 120v72q0 229 -204 229h-35q-99 0 -153 -51t-54 -145v-142h-137v160q0 143 90 221t254 78h35q166 0 255 -87t89 -255v-86q0 -105 -52 -193t-114 -140q-63 -52 -178 -126q-146 -92 -200 -211 t-58 -276h622v-121h-752z" />
<glyph unicode="3" horiz-adv-x="980" d="M96 279v161h127v-139q0 -104 50 -150t153 -47h82q109 0 163 50t54 170v192q0 205 -203 205h-135v117h96q223 0 224 206v134q0 197 -193 196h-37q-211 0 -211 -180v-154h-127v172q0 135 89 209t251 74h35q160 0 246 -78t86 -235v-140q0 -193 -176 -245q190 -53 190 -277 v-194q0 -184 -86 -266t-260 -80h-92q-164 0 -245 70t-81 229z" />
<glyph unicode="4" horiz-adv-x="942" d="M53 266v68l357 1141h141l-344 -1092h368v254l41 156h99v-410h164v-117h-164v-266h-140v266h-522z" />
<glyph unicode="5" horiz-adv-x="946" d="M98 295v145h133v-102q1 -127 51 -180t150 -54h62q209 0 208 230v207q0 227 -215 227h-331l18 707h637v-121h-506l-12 -465l196 2q350 2 351 -346v-219q0 -184 -88 -266t-260 -80h-62q-170 0 -251 74t-81 241z" />
<glyph unicode="6" horiz-adv-x="1019" d="M143 299v877q1 152 101 236t276 83q176 0 278 -80t101 -223v-156h-139v125q0 209 -238 209t-237 -225v-369q86 103 262 103t264 -81t88 -231v-266q0 -153 -102 -237q-101 -84 -281 -84t-276 84t-97 235zM285 330q-1 -226 237 -226t238 226v202q0 225 -225 226 q-115 0 -182 -56t-68 -159v-213z" />
<glyph unicode="7" horiz-adv-x="831" d="M55 1354v121h723v-97l-477 -1378h-143l469 1354h-572z" />
<glyph unicode="8" horiz-adv-x="1017" d="M113 299v203q0 207 198 282q-164 68 -164 256v152q1 143 97 223t265 80t266 -80t97 -223v-152q0 -188 -163 -258q197 -76 196 -280v-203q0 -152 -105 -236q-104 -83 -290 -83t-292 83q-105 84 -105 236zM252 328q0 -232 257 -232t257 232v164q0 237 -256 237 q-130 0 -194 -58t-64 -179v-164zM283 1034q0 -192 226 -192t226 192v146q0 198 -226 198t-226 -198v-146z" />
<glyph unicode="9" horiz-adv-x="1019" d="M121 283v155h139v-125q0 -209 238 -209t237 226v370q-88 -104 -264 -104t-263 81t-87 230v267q0 152 101 236q100 84 280 85q180 0 277 -84t98 -235v-877q1 -152 -101 -236q-102 -83 -277 -83t-277 79q-101 80 -101 224zM260 942q0 -225 223 -225q117 0 185 57t67 168 v203q1 225 -237 225t-238 -225v-203z" />
<glyph unicode=":" horiz-adv-x="413" d="M139 0v209h144v-209h-144zM139 807v209h144v-209h-144z" />
<glyph unicode=";" horiz-adv-x="464" d="M96 -207l74 416h160l-144 -416h-90zM180 807v209h144v-209h-144z" />
<glyph unicode="&#x3c;" horiz-adv-x="784" d="M59 575v117l473 578h173l-529 -635l529 -635h-173z" />
<glyph unicode="=" horiz-adv-x="917" d="M133 295v121h651v-121h-651zM133 705v120h651v-120h-651z" />
<glyph unicode="&#x3e;" horiz-adv-x="784" d="M80 0l528 635l-528 635h172l473 -578v-117l-473 -575h-172z" />
<glyph unicode="?" horiz-adv-x="985" d="M102 1016v178q0 145 98 223t259 78h37q162 0 260 -77t98 -222v-238q0 -117 -50 -173t-186 -107q-84 -33 -110 -75t-27 -103v-236h-131v264q0 98 43 150t149 93q106 40 141 84q36 44 36 126v188q-1 107 -61 159t-162 52h-37q-101 0 -163 -52t-63 -159v-153h-131zM346 0 v209h143v-209h-143z" />
<glyph unicode="@" horiz-adv-x="1519" d="M145 254v936q-1 135 101 211t278 76h494q178 0 280 -76t103 -211v-705q-1 -86 -63 -131t-175 -45q-154 0 -200 94q-101 -94 -241 -94t-212 79t-72 204v242q0 130 72 206t203 76t233 -74v60h125v-598q0 -86 96 -86q51 0 82 24t31 62v667q0 201 -283 201h-452 q-279 0 -279 -201v-899q0 -201 279 -200h778v-105h-799q-176 0 -277 76t-102 211zM567 598q0 -94 39 -135t121 -41q135 0 219 94v410q-63 78 -221 78t-158 -177v-229z" />
<glyph unicode="A" horiz-adv-x="1110" d="M37 0l440 1475h156l440 -1475h-141l-105 360h-546l-103 -360h-141zM317 485h476l-238 826z" />
<glyph unicode="B" horiz-adv-x="1073" d="M160 0v1475h354q190 0 296 -83t105 -251v-80q0 -193 -188 -254q250 -57 250 -309v-125q-1 -185 -115 -279t-319 -94h-383zM301 117h242q139 1 216 67t77 199v113q0 121 -77 180t-216 59h-242v-618zM301 850h213q260 0 260 217v57q0 234 -260 234h-213v-508z" />
<glyph unicode="C" horiz-adv-x="1130" d="M143 299v877q0 152 116 236q114 83 310 83h5q200 0 314 -84t113 -235v-234h-131v203q0 111 -78 168q-79 57 -217 57q-291 0 -290 -225v-815q-1 -121 69 -173t221 -53q295 0 295 226v202h131v-233q-1 -152 -115 -236q-114 -83 -314 -83t-314 84t-115 235z" />
<glyph unicode="D" horiz-adv-x="1136" d="M160 0v1475h317q277 0 401 -115t123 -352v-541q1 -239 -119 -353t-388 -114h-334zM301 121h193q371 0 370 348v537q0 184 -91 266t-296 82h-176v-1233z" />
<glyph unicode="E" horiz-adv-x="950" d="M160 0v1475h708v-121h-567v-529h444v-120h-444v-584h567v-121h-708z" />
<glyph unicode="F" horiz-adv-x="915" d="M160 0v1475h708v-121h-567v-590h444v-121h-444v-643h-141z" />
<glyph unicode="G" horiz-adv-x="1142" d="M143 299v877q0 152 118 236q117 83 314 83h5q200 0 316 -84t116 -235v-234h-138v203q0 111 -78 168q-79 57 -216 57q-295 0 -295 -225v-803q-1 -121 71 -179q72 -59 218 -59t223 60q78 60 77 178v252h-294v121h432v-715h-76l-33 115q-100 -135 -336 -135q-197 0 -311 84 t-113 235z" />
<glyph unicode="H" horiz-adv-x="1165" d="M160 0v1475h141v-650h561v650h142v-1475h-142v705h-561v-705h-141z" />
<glyph unicode="I" horiz-adv-x="462" d="M160 0v1475h141v-1475h-141z" />
<glyph unicode="J" horiz-adv-x="1044" d="M72 299v225h137v-196q0 -111 72 -167t196 -57q272 0 273 244v1127h141v-1135q0 -174 -108 -267t-301 -93t-302 84t-108 235z" />
<glyph unicode="K" horiz-adv-x="1009" d="M160 0v1475h141v-682l504 682h151l-518 -713l551 -762h-164l-524 719v-719h-141z" />
<glyph unicode="L" horiz-adv-x="872" d="M160 0v1475h141v-1354h535v-121h-676z" />
<glyph unicode="M" horiz-adv-x="1441" d="M160 0v1475h145l414 -785l416 785h145v-1475h-137v1126l6 105l-379 -711h-100l-379 719l6 -111v-1128h-137z" />
<glyph unicode="N" horiz-adv-x="1210" d="M160 0v1475h112l648 -1156l-5 70v1086h134v-1475h-113l-647 1159l4 -57v-1102h-133z" />
<glyph unicode="O" d="M143 319v836q0 162 115 251t323 89q207 0 321 -89t114 -251v-836q0 -163 -114 -251t-322 -88t-322 89q-115 89 -115 250zM285 367q0 -139 70 -201q71 -62 225 -62t224 62t70 201v741q0 138 -70 200t-224 62t-225 -61t-70 -201v-741z" />
<glyph unicode="P" horiz-adv-x="1003" d="M160 0v1475h313q235 -1 343 -103t108 -299v-108q0 -185 -106 -281t-345 -96h-172v-588h-141zM301 709h174q160 0 234 62t73 204v92q0 147 -72 217q-73 70 -227 70h-182v-645z" />
<glyph unicode="Q" d="M143 319v836q0 162 115 251t323 89q207 0 321 -89t114 -251v-836q0 -262 -281 -323l213 -260l-98 -82l-266 326h-4q-207 0 -322 89t-115 250zM285 367q0 -139 70 -201q71 -62 225 -62t224 62t70 201v741q0 138 -70 200t-224 62t-225 -61t-70 -201v-741z" />
<glyph unicode="R" horiz-adv-x="1038" d="M160 0v1475h305q235 -1 343 -103t107 -299v-108q0 -295 -268 -359l359 -606h-162l-340 588h-203v-588h-141zM301 709h166q159 0 233 62t74 204v92q0 147 -72 217t-227 70h-174v-645z" />
<glyph unicode="S" horiz-adv-x="1044" d="M104 279v165h140v-133q0 -117 51 -161t168 -46h96q129 0 189 43q59 43 59 183v116q0 94 -46 152t-161 82l-207 45q-141 31 -204 101q-62 71 -62 237v98q0 164 91 249t267 85h50q172 0 269 -79t97 -220v-164h-137v139q0 203 -232 203h-43q-115 0 -167 -50t-54 -173v-78 q0 -115 33 -155t145 -68l197 -45q167 -37 235 -121t68 -240v-116q0 -348 -379 -348h-108q-178 0 -266 70t-89 229z" />
<glyph unicode="T" horiz-adv-x="917" d="M37 1354v121h844v-121h-351v-1354h-141v1354h-352z" />
<glyph unicode="U" horiz-adv-x="1177" d="M154 315v1160h141v-1117q0 -254 295 -254t295 254v1117h141v-1160q0 -159 -118 -247t-320 -88t-318 89q-117 89 -116 246z" />
<glyph unicode="V" horiz-adv-x="1064" d="M59 1475h144l329 -1282l330 1282h144l-398 -1475h-151z" />
<glyph unicode="W" horiz-adv-x="1656" d="M63 1475h142l258 -1325l293 1325h147l289 -1323l260 1323h141l-307 -1475h-176l-283 1282l-280 -1282h-176z" />
<glyph unicode="X" horiz-adv-x="1009" d="M25 0l397 745l-352 730h149l285 -619l289 619h147l-350 -730l397 -745h-151l-330 641l-332 -641h-149z" />
<glyph unicode="Y" horiz-adv-x="1060" d="M53 1475h150l325 -791l330 791h148l-404 -934v-541h-141v541z" />
<glyph unicode="Z" horiz-adv-x="960" d="M53 0v88l658 1266h-621v121h793v-89l-656 -1265h670v-121h-844z" />
<glyph unicode="[" horiz-adv-x="493" d="M152 -276v1751h258v-121h-129v-1510h129v-120h-258z" />
<glyph unicode="\" horiz-adv-x="1050" d="M37 1532h147l832 -1589h-150z" />
<glyph unicode="]" horiz-adv-x="493" d="M84 -156h129v1510h-129v121h258v-1751h-258v120z" />
<glyph unicode="^" horiz-adv-x="1050" d="M68 813l399 657h117l399 -657h-149l-310 537l-307 -537h-149z" />
<glyph unicode="_" horiz-adv-x="1073" d="M90 0h893v-121h-893v121z" />
<glyph unicode="`" horiz-adv-x="794" d="M16 1458h181l211 -332h-97z" />
<glyph unicode="a" horiz-adv-x="915" d="M82 262v57q0 287 326 287h241v225q0 93 -47 137t-148 44q-100 0 -144 -42t-44 -139v-53h-127v66q0 282 320 282h2q168 0 244 -70t75 -212v-852h-104l-17 82q-137 -84 -307 -84q-270 0 -270 272zM215 266q0 -168 172 -168q154 0 262 76v326h-225q-109 0 -159 -42t-50 -134 v-58z" />
<glyph unicode="b" horiz-adv-x="980" d="M141 -8v1483h131v-449q193 100 308 100q272 0 272 -286v-535q0 -319 -296 -319q-150 0 -284 88v-2l-20 -80h-111zM272 195q121 -90 271 -91q178 0 178 220v497q0 187 -164 187q-96 0 -285 -101v-712z" />
<glyph unicode="c" horiz-adv-x="948" d="M123 283v540q0 145 94 225q92 78 258 78h8q172 0 263 -78t92 -225v-155h-127v125q0 215 -224 215q-119 0 -176 -52t-57 -163v-480q0 -215 233 -215q103 0 163 54t61 161v109h127v-139q0 -145 -92 -225q-90 -78 -255 -78h-8q-172 0 -266 78t-94 225z" />
<glyph unicode="d" horiz-adv-x="966" d="M125 289v551q0 133 78 210q78 76 219 76t272 -75v424h131v-1475h-110l-21 66q-137 -80 -274 -80t-216 82t-79 221zM256 324q0 -100 50 -160t150 -60q101 0 238 76v742q-132 86 -234 86q-204 0 -204 -187v-497z" />
<glyph unicode="e" horiz-adv-x="952" d="M123 299v508q0 151 92 235t263 84t267 -84t97 -235v-311h-588v-170q0 -121 53 -176t168 -56q236 0 236 232v43h131v-70q0 -152 -96 -236q-96 -83 -268 -83q-171 0 -263 84t-92 235zM254 604h457v176q0 231 -236 232q-115 0 -168 -56t-53 -176v-176z" />
<glyph unicode="f" horiz-adv-x="579" d="M61 995v111h103v172q0 278 272 278h2q76 0 123 -20v-115q-41 21 -117 21t-112 -38t-37 -128v-170h246v-111h-246v-995h-131v995h-103z" />
<glyph unicode="g" horiz-adv-x="948" d="M125 309v531q0 133 78 210q78 76 219 76t270 -75l15 63h100v-1163q0 -340 -418 -340q-152 0 -250 27v116q111 -28 237 -28h9q291 0 291 243v107q-127 -70 -260 -70t-212 82t-79 221zM256 344q0 -100 49 -160q50 -59 149 -59t222 65v744q-114 74 -216 74q-204 0 -204 -187 v-477z" />
<glyph unicode="h" horiz-adv-x="954" d="M141 0v1475h131v-439q160 90 290 90q257 0 257 -276v-850h-131v817q0 188 -156 189q-106 0 -260 -91v-915h-131z" />
<glyph unicode="i" horiz-adv-x="417" d="M141 1294v209h144v-209h-144zM143 0v1106h131v-1106h-131z" />
<glyph unicode="j" horiz-adv-x="428" d="M-78 -266q49 -8 84 -8q78 0 113 68t35 222v1090h131v-1090q-1 -211 -63 -308t-212 -97q-45 0 -88 8v115zM152 1311v209h143v-209h-143z" />
<glyph unicode="k" horiz-adv-x="849" d="M141 0v1475h131v-844l387 475h150l-424 -508l444 -598h-149l-408 547v-547h-131z" />
<glyph unicode="l" horiz-adv-x="475" d="M143 315v1160h131v-1149q0 -218 118 -220q56 0 79 11v-113q-37 -12 -109 -12q-114 0 -166 75t-53 248z" />
<glyph unicode="m" horiz-adv-x="1454" d="M141 0v1114h101l16 -82q126 94 276 94t218 -112q146 112 306 112h3q125 0 191 -78t65 -214v-834h-131v805q0 205 -158 205q-111 0 -244 -95q8 -53 9 -81v-834h-131v805q0 205 -158 205q-127 0 -232 -84v-926h-131z" />
<glyph unicode="n" horiz-adv-x="956" d="M141 0v1114h101l18 -86q172 98 303 98q258 0 258 -276v-850h-131v817q0 188 -155 189q-109 0 -263 -91v-915h-131z" />
<glyph unicode="o" horiz-adv-x="964" d="M123 283v540q0 145 93 225q91 78 258 78h8q173 0 267 -78q93 -80 93 -225v-540q0 -145 -93 -225q-91 -78 -259 -78h-8q-174 0 -266 78q-93 78 -93 225zM254 313q0 -215 228 -215t229 215v480q-1 215 -229 215t-228 -215v-480z" />
<glyph unicode="p" horiz-adv-x="976" d="M141 -369v1483h101l18 -92q201 104 315 104q272 0 273 -286v-535q0 -319 -296 -319q-150 0 -280 86v-441h-131zM272 193q123 -88 267 -89q178 0 178 220v497q0 187 -164 187q-88 0 -281 -99v-716z" />
<glyph unicode="q" horiz-adv-x="980" d="M125 289v551q0 133 78 210q77 76 227 76t291 -92l18 80h101v-1483h-131v443q-141 -88 -283 -88t-222 82q-79 82 -79 221zM256 324q0 -100 50 -160t152 -60q104 0 251 84v723q-79 53 -135 75t-136 22t-131 -47t-51 -140v-497z" />
<glyph unicode="r" horiz-adv-x="747" d="M141 0v1114h101l18 -106q140 118 264 118h2q84 0 130 -52t46 -142v-236h-127v217q0 97 -83 97t-220 -115v-895h-131z" />
<glyph unicode="s" horiz-adv-x="884" d="M96 242v127h127v-117q0 -90 53 -124t161 -34t163 34t55 128v100q0 115 -127 138l-176 34q-137 25 -186 80t-49 201v68q0 249 322 249h3q158 0 242 -63t84 -182v-117h-127v110q0 141 -192 142q-109 0 -158 -33t-49 -109v-65q0 -90 30 -119t125 -47l162 -33 q119 -20 173 -75t54 -166v-111q0 -152 -89 -215t-263 -63q-338 0 -338 262z" />
<glyph unicode="t" horiz-adv-x="616" d="M53 995v111h123v246h131v-246h242v-111h-242v-721q0 -172 158 -172q84 0 125 19v-113q-72 -20 -154 -20q-260 0 -260 268v739h-123z" />
<glyph unicode="u" horiz-adv-x="958" d="M137 272v834h131v-801q0 -205 154 -205q117 0 266 90v916h131v-1106h-102l-15 78q-176 -98 -308 -98q-255 0 -257 292z" />
<glyph unicode="v" horiz-adv-x="894" d="M57 1106h138l251 -944l254 944h138l-322 -1106h-137z" />
<glyph unicode="w" horiz-adv-x="1351" d="M63 1106h138l190 -979l219 979h131l220 -983l190 983h137l-246 -1106h-157l-209 924l-209 -924h-156z" />
<glyph unicode="x" horiz-adv-x="845" d="M37 0l313 580l-287 526h146l213 -426l215 426h145l-288 -526l315 -580h-147l-240 473l-246 -473h-139z" />
<glyph unicode="y" horiz-adv-x="907" d="M51 1106h142l270 -930l252 930h145l-354 -1190q-57 -186 -138 -244t-194 -59q-63 0 -96 10v115q28 -10 94 -10t121 44t88 167l16 61h-2z" />
<glyph unicode="z" horiz-adv-x="811" d="M53 0v90l520 905h-479v111h635v-90l-532 -905h553v-111h-697z" />
<glyph unicode="{" horiz-adv-x="546" d="M51 471v115q143 0 144 162v497q0 127 64 189q65 61 218 61v-115q-152 0 -151 -145v-465q0 -190 -115 -242q115 -51 115 -241v-539q0 -145 151 -145v-115q-155 0 -219 61t-63 189v571q0 162 -144 162z" />
<glyph unicode="|" horiz-adv-x="434" d="M152 -512v2048h131v-2048h-131z" />
<glyph unicode="}" horiz-adv-x="546" d="M70 -397q152 0 151 145v539q0 190 115 241q-115 51 -115 242v465q0 145 -151 145v115q154 1 218 -61t64 -189v-497q0 -162 144 -162v-115q-143 0 -144 -162v-571q0 -127 -64 -189q-65 -61 -218 -61v115z" />
<glyph unicode="~" horiz-adv-x="1099" d="M119 735q2 133 66 205q65 72 182 72q74 0 132 -26t88 -56q82 -80 163 -80q122 0 122 164h125q-10 -291 -231 -291q-70 0 -124 27q-54 28 -84 58q-82 84 -175 83q-137 0 -139 -156h-125z" />
<glyph unicode="&#xa1;" horiz-adv-x="436" d="M141 1266v209h152v-209h-152zM145 0v508l27 631h90l31 -631v-508h-148z" />
<glyph unicode="&#xa2;" horiz-adv-x="933" d="M117 283v540q0 137 85 215t247 86v207h86v-207q143 -12 220 -90t76 -211v-155h-126v125q0 215 -224 215q-119 0 -176 -52t-57 -163v-480q0 -215 233 -215q103 0 163 54t61 161v109h126v-139q-1 -133 -77 -211t-219 -90v-248h-86v248q-162 8 -247 85t-85 216z" />
<glyph unicode="&#xa3;" horiz-adv-x="1026" d="M106 0v98q133 260 144 443h-133v116h127q-6 37 -62 206q-55 169 -55 290q0 168 92 255t264 87h41q186 0 292 -79t108 -220v-147h-131v92q1 127 -61 181t-202 54h-41q-123 0 -176 -60t-53 -175t53 -267t64 -217h293v-116h-289q-8 -197 -127 -426h670v-115h-818z" />
<glyph unicode="&#xa4;" horiz-adv-x="1046" d="M96 1081l78 80l109 -112q72 33 170 32h141q98 0 170 -32l108 112l78 -80l-102 -106q23 -39 22 -86v-451q0 -41 -14 -69l90 -95l-78 -79l-88 92q-72 -41 -186 -41h-141q-115 0 -187 41l-88 -92l-78 79l88 95q-12 31 -12 69v451q0 47 23 86zM285 473q0 -123 180 -123h117 q98 0 139 29t41 94v383q0 63 -42 92t-138 29h-117q-180 0 -180 -121v-383z" />
<glyph unicode="&#xa5;" horiz-adv-x="1050" d="M39 1475h149l326 -791l330 791h147l-354 -818h235v-120h-284v-183h284v-121h-284v-233h-142v233h-282v121h282v183h-282v120h231z" />
<glyph unicode="&#xa6;" horiz-adv-x="438" d="M150 307h139v-819h-139v819zM150 717v819h139v-819h-139z" />
<glyph unicode="&#xa7;" horiz-adv-x="1079" d="M84 0h127v-96q0 -90 59 -124t176 -34t177 34q59 34 59 128v67q0 66 -45 104t-184 60l-134 23q-123 29 -169 79t-46 171v67q0 190 215 236q-41 53 -40 159v84q0 121 90 186q90 64 256 64t257 -64t91 -181v-113h-127v90q0 84 -50 121t-165 37t-169 -34t-54 -108v-82 q0 -70 36 -98t158 -53l103 -23q166 -35 227 -88t61 -161v-78q0 -213 -213 -252q39 -59 39 -150v-45q0 -152 -86 -224t-279 -71q-193 0 -282 66q-88 66 -88 213v90zM233 412q0 -78 35 -103t168 -51l129 -22l47 -11h33q106 0 160 32q53 32 53 114v67q0 63 -48 94t-198 70 l-63 14q-27 2 -90 2q-225 0 -226 -145v-61z" />
<glyph unicode="&#xa8;" horiz-adv-x="1001" d="M223 1167v197h152v-197h-152zM608 1167v197h152v-197h-152z" />
<glyph unicode="&#xa9;" horiz-adv-x="1441" d="M145 279v917q-1 133 101 206t280 73h394q176 0 277 -73t101 -206v-917q0 -133 -101 -206t-277 -73h-394q-178 0 -279 73t-102 206zM260 307q0 -205 287 -205h352q285 0 285 205v860q0 205 -285 205h-352q-287 0 -287 -205v-860zM477 496v467q0 90 67 140q66 50 178 50 t174 -50t62 -140v-142h-104v113q0 121 -135 121t-135 -121v-410q0 -121 139 -121q59 0 95 33t36 88v113h104v-141q0 -90 -62 -140t-174 -51q-112 0 -178 50t-67 141z" />
<glyph unicode="&#xaa;" horiz-adv-x="749" d="M96 895v35q0 201 205 200q98 0 197 -32v178q0 80 -57 102q-26 10 -64 11q-121 0 -121 -113v-35h-119v55q1 92 59 146t181 55q244 0 244 -201v-587h-103l-10 47q-100 -62 -206 -62q-206 0 -206 201zM221 895q0 -113 111 -113q96 0 166 49v177q-66 35 -164 34 q-113 0 -113 -110v-37z" />
<glyph unicode="&#xab;" horiz-adv-x="935" d="M78 545v92l233 342h135l-253 -387l-3 -2h3l253 -387h-135zM467 545v92l233 342h136l-254 -387l-2 -2h2l254 -387h-136z" />
<glyph unicode="&#xac;" horiz-adv-x="1054" d="M127 688v121h788v-217h-131v96h-657z" />
<glyph unicode="&#xad;" horiz-adv-x="888" d="M119 684v121h651v-121h-651z" />
<glyph unicode="&#xae;" horiz-adv-x="1441" d="M145 279v917q-1 133 101 206t280 73h394q176 0 277 -73t101 -206v-917q0 -133 -101 -206t-277 -73h-394q-178 0 -279 73t-102 206zM260 307q0 -205 287 -205h352q285 0 285 205v860q0 205 -285 205h-352q-287 0 -287 -205v-860zM496 332v801h194q270 0 271 -220v-77 q0 -150 -152 -185l156 -319h-123l-144 307h-96v-307h-106zM602 733h80q86 0 129 29t43 104v39q0 77 -42 105t-122 28h-88v-305z" />
<glyph unicode="&#xaf;" horiz-adv-x="1705" d="M0 1391v108h557v-108h-557z" />
<glyph unicode="&#xb0;" horiz-adv-x="757" d="M100 1126v115q0 123 72 189t207 66t207 -66q71 -66 71 -189v-115q0 -254 -278 -254q-135 0 -207 66t-72 188zM215 1130q0 -152 164 -152t164 152v107q0 152 -164 152t-164 -152v-107z" />
<glyph unicode="&#xb1;" horiz-adv-x="1040" d="M123 0v117h795v-117h-795zM125 709v116h338v338h117v-338h338v-116h-338v-340h-117v340h-338z" />
<glyph unicode="&#xb2;" horiz-adv-x="745" d="M86 451v57q0 268 160 395q26 23 114 75t128 100t40 120v49q0 143 -141 144h-31q-141 0 -141 -125v-95h-121v117q0 100 69 154t195 55h29q266 0 266 -240v-59q0 -104 -53 -173t-203 -159q-184 -109 -194 -309h467v-106h-584z" />
<glyph unicode="&#xb3;" horiz-adv-x="763" d="M76 645v109h119v-80q0 -125 143 -125h59q76 0 114 32t38 107v123q0 133 -146 133h-110v98h84q154 0 153 140v78q0 131 -133 131h-26q-143 0 -144 -121v-90h-118v116q0 96 69 149q70 52 195 52h26q256 0 256 -225v-94q0 -129 -127 -168q139 -41 140 -195v-125 q0 -135 -67 -194t-202 -60h-67q-129 0 -193 49q-63 49 -63 160z" />
<glyph unicode="&#xb4;" horiz-adv-x="770" d="M176 1126l195 332h180l-279 -332h-96z" />
<glyph unicode="&#xb5;" horiz-adv-x="985" d="M152 -512v1618h131v-801q0 -205 153 -205q117 0 266 90v916h132v-1106h-103l-14 78q-176 -98 -316 -98q-63 0 -118 24v-516h-131z" />
<glyph unicode="&#xb6;" horiz-adv-x="903" d="M84 868v432q0 84 47 130t137 45h475v-1717h-118v1608h-133v-1608h-121v938h-103q-184 0 -184 172z" />
<glyph unicode="&#xb7;" horiz-adv-x="409" d="M137 471v209h144v-209h-144z" />
<glyph unicode="&#xb8;" horiz-adv-x="768" d="M315 -342h109q61 0 84 16t22 58v10q0 43 -23 61q-24 18 -81 19h-61v196h86v-122h6q92 0 134 -37t42 -122t-47 -123t-170 -38h-101v82z" />
<glyph unicode="&#xb9;" horiz-adv-x="452" d="M47 1282v111l201 90h84v-1032h-121v895z" />
<glyph unicode="&#xba;" horiz-adv-x="761" d="M115 907v373q0 102 69 159q70 56 197 56t196 -56q68 -57 68 -159v-373q-1 -102 -69 -158q-68 -57 -195 -57t-197 56t-69 159zM236 936q0 -135 144 -135t144 135v315q0 135 -144 135t-144 -135v-315z" />
<glyph unicode="&#xbb;" horiz-adv-x="935" d="M100 203l254 387h2l-2 2l-254 387h136l233 -342v-92l-233 -342h-136zM489 203l254 387h2l-2 2l-254 387h136l233 -342v-92l-233 -342h-136z" />
<glyph unicode="&#xbc;" horiz-adv-x="1777" d="M55 1282v111l201 90h84v-1032h-121v895zM397 -41l688 1557h123l-686 -1557h-125zM1067 213v84l416 735h106v-713h123v-106h-123v-213h-125v213h-397zM1200 319h264v476z" />
<glyph unicode="&#xbd;" horiz-adv-x="1824" d="M55 1282v111l201 90h84v-1032h-121v895zM397 -41l688 1557h123l-686 -1557h-125zM1155 0v57q0 268 160 396q27 23 115 75t128 100t39 120v49q0 143 -141 143h-31q-141 0 -141 -125v-94h-121v117q0 100 69 154t195 55h29q266 0 266 -240v-59q0 -104 -53 -174t-203 -158 q-184 -109 -194 -310h467v-106h-584z" />
<glyph unicode="&#xbe;" horiz-adv-x="1990" d="M86 645v109h119v-80q0 -125 143 -125h60q76 0 114 32t37 107v123q0 133 -145 133h-111v98h84q154 0 154 140v78q0 131 -133 131h-27q-143 0 -143 -121v-90h-119v116q0 96 69 149q70 52 195 52h27q256 0 256 -225v-94q0 -129 -127 -168q139 -41 139 -195v-125 q0 -135 -67 -194t-201 -60h-68q-129 0 -192 49t-64 160zM610 -41l688 1557h123l-686 -1557h-125zM1280 213v84l416 735h106v-713h123v-106h-123v-213h-125v213h-397zM1413 319h264v476z" />
<glyph unicode="&#xbf;" horiz-adv-x="976" d="M160 90q0 117 49 173q49 57 159 99t137 84q26 42 25 103v235h134v-264q0 -98 -44 -150t-150 -92t-141 -84q-36 -44 -36 -126v-189q0 -107 61 -159t164 -52h37q102 0 163 52q60 52 60 159v154h133v-178q0 -145 -98 -223t-260 -78h-37q-162 0 -259 76t-97 223v237zM496 942 v209h143v-209h-143z" />
<glyph unicode="&#xc0;" horiz-adv-x="1110" d="M37 0l440 1475h156l440 -1475h-141l-105 360h-546l-103 -360h-141zM238 1886h180l211 -332h-97zM317 485h476l-238 826z" />
<glyph unicode="&#xc1;" horiz-adv-x="1110" d="M37 0l440 1475h156l440 -1475h-141l-105 360h-546l-103 -360h-141zM317 485h476l-238 826zM502 1554l194 332h181l-279 -332h-96z" />
<glyph unicode="&#xc2;" horiz-adv-x="1110" d="M37 0l440 1475h156l440 -1475h-141l-105 360h-546l-103 -360h-141zM244 1554l260 291h104l262 -291h-131l-182 185l-184 -185h-129zM317 485h476l-238 826z" />
<glyph unicode="&#xc3;" horiz-adv-x="1110" d="M37 0l440 1475h156l440 -1475h-141l-105 360h-546l-103 -360h-141zM281 1552q2 102 48 158t106 57q88 0 171 -83q29 -28 47 -27q66 0 66 115h102q0 -104 -43 -160q-44 -56 -112 -58q-68 0 -127 56t-90 57q-31 0 -51 -32t-19 -83h-98zM317 485h476l-238 826z" />
<glyph unicode="&#xc4;" horiz-adv-x="1110" d="M37 0l440 1475h156l440 -1475h-141l-105 360h-546l-103 -360h-141zM289 1554v197h151v-197h-151zM317 485h476l-238 826zM674 1554v197h151v-197h-151z" />
<glyph unicode="&#xc5;" horiz-adv-x="1110" d="M37 0l440 1475h156l440 -1475h-141l-105 360h-546l-103 -360h-141zM317 485h476l-238 826zM340 1767v50q0 184 218 184t218 -184v-50q0 -182 -219 -182q-106 0 -162 47q-55 47 -55 135zM440 1790q0 -119 120 -119t120 119v6q0 121 -123 121q-117 0 -117 -121v-6z" />
<glyph unicode="&#xc6;" horiz-adv-x="1644" d="M14 0l791 1475h756v-121h-566v-529h445v-120h-445v-584h566v-121h-707v356h-504l-188 -356h-148zM414 477h440v830z" />
<glyph unicode="&#xc7;" horiz-adv-x="1130" d="M143 299v877q0 152 116 236q115 84 315 83q200 0 314 -84t113 -235v-234h-131v203q0 111 -78 168q-79 57 -217 57q-291 0 -290 -225v-815q-1 -121 69 -173t221 -53q295 0 295 226v202h131v-233q0 -137 -95 -219t-265 -96v-88h6q92 0 134 -37t42 -122t-47 -123t-170 -38 h-100v82h108q61 0 84 16t23 58v10q0 43 -24 61t-81 19h-61v158q-193 4 -303 88t-109 231z" />
<glyph unicode="&#xc8;" horiz-adv-x="950" d="M160 0v1475h708v-121h-567v-529h444v-120h-444v-584h567v-121h-708zM199 1886h180l211 -332h-96z" />
<glyph unicode="&#xc9;" horiz-adv-x="950" d="M160 0v1475h708v-121h-567v-529h444v-120h-444v-584h567v-121h-708zM444 1554l195 332h180l-278 -332h-97z" />
<glyph unicode="&#xca;" horiz-adv-x="950" d="M160 0v1475h708v-121h-567v-529h444v-120h-444v-584h567v-121h-708zM205 1554l260 291h104l262 -291h-131l-182 185l-184 -185h-129z" />
<glyph unicode="&#xcb;" horiz-adv-x="950" d="M160 0v1475h708v-121h-567v-529h444v-120h-444v-584h567v-121h-708zM225 1554v209h144v-209h-144zM676 1554v209h143v-209h-143z" />
<glyph unicode="&#xcc;" horiz-adv-x="462" d="M-90 1886h180l211 -332h-96zM160 0v1475h141v-1475h-141z" />
<glyph unicode="&#xcd;" horiz-adv-x="462" d="M156 1554l194 332h180l-278 -332h-96zM160 0v1475h141v-1475h-141z" />
<glyph unicode="&#xce;" horiz-adv-x="462" d="M-84 1554l260 291h105l262 -291h-131l-183 185l-184 -185h-129zM160 0v1475h141v-1475h-141z" />
<glyph unicode="&#xcf;" horiz-adv-x="462" d="M-63 1554v209h143v-209h-143zM160 0v1475h141v-1475h-141zM387 1554v209h143v-209h-143z" />
<glyph unicode="&#xd0;" horiz-adv-x="1181" d="M45 668v120h127v687h334q283 -1 412 -107t129 -315v-672q0 -197 -122 -289t-399 -92h-354v668h-127zM313 125h213q190 0 287 62q96 62 96 208v652q0 141 -99 222t-304 81h-193v-562h232v-120h-232v-543z" />
<glyph unicode="&#xd1;" horiz-adv-x="1210" d="M160 0v1475h112l648 -1156l-5 70v1086h134v-1475h-113l-647 1159l4 -57v-1102h-133zM334 1552q2 102 48 158t106 57t102 -27t70 -56t47 -27q65 0 65 115h102q0 -104 -43 -160t-111 -58q-68 0 -128 56t-90 57q-31 0 -50 -32t-20 -83h-98z" />
<glyph unicode="&#xd2;" d="M143 319v836q0 162 115 251t323 89q207 0 321 -89t114 -251v-836q0 -163 -114 -251t-322 -88t-322 89q-115 89 -115 250zM260 1907h180l211 -332h-96zM285 367q0 -139 70 -201q71 -62 225 -62t224 62t70 201v741q0 138 -70 200t-224 62t-225 -61t-70 -201v-741z" />
<glyph unicode="&#xd3;" d="M143 319v836q0 162 115 251t323 89q207 0 321 -89t114 -251v-836q0 -163 -114 -251t-322 -88t-322 89q-115 89 -115 250zM285 367q0 -139 70 -201q71 -62 225 -62t224 62t70 201v741q0 138 -70 200t-224 62t-225 -61t-70 -201v-741zM524 1575l195 332h180l-278 -332h-97z " />
<glyph unicode="&#xd4;" d="M143 319v836q0 162 115 251t323 89q207 0 321 -89t114 -251v-836q0 -163 -114 -251t-322 -88t-322 89q-115 89 -115 250zM266 1575l260 291h105l262 -291h-131l-182 184l-185 -184h-129zM285 367q0 -139 70 -201q71 -62 225 -62t224 62t70 201v741q0 138 -70 200t-224 62 t-225 -61t-70 -201v-741z" />
<glyph unicode="&#xd5;" d="M143 319v836q0 162 115 251t323 89q207 0 321 -89t114 -251v-836q0 -163 -114 -251t-322 -88t-322 89q-115 89 -115 250zM285 367q0 -139 70 -201q71 -62 225 -62t224 62t70 201v741q0 138 -70 200t-224 62t-225 -61t-70 -201v-741zM344 1585q2 103 48 159t106 56 t102 -28q41 -28 70 -55q29 -28 47 -27q65 -1 65 114h103q0 -104 -43 -160q-44 -56 -112 -56t-128 56t-90 56q-31 0 -50 -32t-20 -83h-98z" />
<glyph unicode="&#xd6;" d="M143 319v836q0 162 115 251t323 89q207 0 321 -89t114 -251v-836q0 -163 -114 -251t-322 -88t-322 89q-115 89 -115 250zM285 367q0 -139 70 -201q71 -62 225 -62t224 62t70 201v741q0 138 -70 200t-224 62t-225 -61t-70 -201v-741zM287 1575v209h143v-209h-143z M737 1575v209h144v-209h-144z" />
<glyph unicode="&#xd7;" horiz-adv-x="866" d="M111 494l239 239l-239 240l82 84l241 -240l240 240l82 -84l-238 -240l238 -239l-82 -84l-240 239l-241 -239z" />
<glyph unicode="&#xd8;" d="M92 -35l98 176q-47 76 -47 178v836q0 162 115 251t321 89t324 -90l64 115h108l-106 -189q47 -76 47 -176v-836q0 -163 -114 -251t-322 -88t-320 88l-57 -103h-111zM285 367q0 -37 2 -56l544 967q-67 92 -236 92t-240 -61t-70 -201v-741zM330 193q68 -89 236 -89t238 62 t70 201v741q0 16 -4 49z" />
<glyph unicode="&#xd9;" horiz-adv-x="1177" d="M154 315v1160h141v-1117q0 -254 295 -254t295 254v1117h141v-1160q0 -159 -118 -247t-320 -88t-318 89q-117 89 -116 246zM270 1886h181l211 -332h-97z" />
<glyph unicode="&#xda;" horiz-adv-x="1177" d="M154 315v1160h141v-1117q0 -254 295 -254t295 254v1117h141v-1160q0 -159 -118 -247t-320 -88t-318 89q-117 89 -116 246zM532 1554l195 332h180l-278 -332h-97z" />
<glyph unicode="&#xdb;" horiz-adv-x="1177" d="M154 315v1160h141v-1117q0 -254 295 -254t295 254v1117h141v-1160q0 -159 -118 -247t-320 -88t-318 89q-117 89 -116 246zM276 1554l261 291h104l262 -291h-131l-182 185l-184 -185h-130z" />
<glyph unicode="&#xdc;" horiz-adv-x="1177" d="M154 315v1160h141v-1117q0 -254 295 -254t295 254v1117h141v-1160q0 -159 -118 -247t-320 -88t-318 89q-117 89 -116 246zM322 1554v197h151v-197h-151zM707 1554v197h151v-197h-151z" />
<glyph unicode="&#xdd;" horiz-adv-x="1060" d="M53 1475h150l325 -791l330 791h148l-404 -934v-541h-141v541zM473 1554l195 332h180l-279 -332h-96z" />
<glyph unicode="&#xde;" horiz-adv-x="1024" d="M160 -369v1844h139v-361h213q186 0 292 -86t105 -254v-434q0 -170 -104 -255t-293 -85h-213v-369h-139zM299 121h213q260 0 260 229v414q0 229 -260 229h-213v-872z" />
<glyph unicode="&#xdf;" horiz-adv-x="1032" d="M141 0v1235q0 172 90 249t273 77q365 0 364 -312v-139q0 -176 -139 -225q201 -66 201 -322v-239q0 -160 -100 -242t-281 -82h-141v121h141q244 0 244 231v191q0 270 -211 270h-174v92h2v25h143q90 0 134 53t44 143v101q0 213 -209 213h-26q-213 0 -213 -228v-1212h-142z " />
<glyph unicode="&#xe0;" horiz-adv-x="915" d="M82 262v57q0 287 326 287h241v225q0 93 -47 137t-148 44q-100 0 -144 -42t-44 -139v-53h-127v66q0 283 322 282q168 0 244 -70t75 -212v-852h-104l-17 82q-137 -84 -307 -84q-270 0 -270 272zM127 1579h180l211 -332h-96zM215 266q0 -168 172 -168q154 0 262 76v326h-225 q-109 0 -159 -42t-50 -134v-58z" />
<glyph unicode="&#xe1;" horiz-adv-x="915" d="M82 262v57q0 287 326 287h241v225q0 93 -47 137t-148 44q-100 0 -144 -42t-44 -139v-53h-127v66q0 283 322 282q168 0 244 -70t75 -212v-852h-104l-17 82q-137 -84 -307 -84q-270 0 -270 272zM215 266q0 -168 172 -168q154 0 262 76v326h-225q-109 0 -159 -42t-50 -134 v-58zM391 1247l195 332h180l-279 -332h-96z" />
<glyph unicode="&#xe2;" horiz-adv-x="915" d="M82 262v57q0 287 326 287h241v225q0 93 -47 137t-148 44q-100 0 -144 -42t-44 -139v-53h-127v66q0 283 322 282q168 0 244 -70t75 -212v-852h-104l-17 82q-137 -84 -307 -84q-270 0 -270 272zM133 1247l260 291h105l262 -291h-131l-183 185l-184 -185h-129zM215 266 q0 -168 172 -168q154 0 262 76v326h-225q-109 0 -159 -42t-50 -134v-58z" />
<glyph unicode="&#xe3;" horiz-adv-x="915" d="M82 262v57q0 287 326 287h241v225q0 93 -47 137t-148 44q-100 0 -144 -42t-44 -139v-53h-127v66q0 283 322 282q168 0 244 -70t75 -212v-852h-104l-17 82q-137 -84 -307 -84q-270 0 -270 272zM170 1245q2 103 48 159t106 56t102 -28q41 -28 70 -55q29 -28 47 -27 q65 -1 65 114h103q0 -104 -43 -160q-44 -56 -112 -56t-128 56t-90 56q-31 0 -50 -32t-20 -83h-98zM215 266q0 -168 172 -168q154 0 262 76v326h-225q-109 0 -159 -42t-50 -134v-58z" />
<glyph unicode="&#xe4;" horiz-adv-x="915" d="M82 262v57q0 287 326 287h241v225q0 93 -47 137t-148 44q-100 0 -144 -42t-44 -139v-53h-127v66q0 283 322 282q168 0 244 -70t75 -212v-852h-104l-17 82q-137 -84 -307 -84q-270 0 -270 272zM178 1247v197h152v-197h-152zM215 266q0 -168 172 -168q154 0 262 76v326 h-225q-109 0 -159 -42t-50 -134v-58zM563 1247v197h152v-197h-152z" />
<glyph unicode="&#xe5;" horiz-adv-x="915" d="M82 262v57q0 287 326 287h241v225q0 93 -47 137t-148 44q-100 0 -144 -42t-44 -139v-53h-127v66q0 283 322 282q168 0 244 -70t75 -212v-852h-104l-17 82q-137 -84 -307 -84q-270 0 -270 272zM215 266q0 -168 172 -168q154 0 262 76v326h-225q-109 0 -159 -42t-50 -134 v-58zM279 1460v49q0 184 218 184t218 -184v-49q0 -182 -219 -182q-106 0 -162 47q-55 47 -55 135zM379 1483q0 -119 117 -119q123 0 122 119v6q0 121 -122 121q-117 0 -117 -121v-6z" />
<glyph unicode="&#xe6;" horiz-adv-x="1478" d="M80 262v57q0 283 293 283q147 0 276 -53v278q1 185 -191 185t-192 -185v-49h-127v66q0 283 318 282q205 0 280 -120q82 120 260 120q179 0 275 -84t96 -235v-311h-588v-170q0 -121 54 -176t167 -56q236 0 236 232v43h131v-70q0 -152 -96 -236q-96 -83 -274 -83t-261 118 q-178 -119 -375 -118q-138 0 -210 74t-72 208zM217 262q0 -176 168 -176q143 0 264 70v282q-109 57 -258 58q-92 0 -133 -42t-41 -135v-57zM780 604h457v176q0 232 -236 232q-113 0 -165 -52t-56 -167v-189z" />
<glyph unicode="&#xe7;" horiz-adv-x="950" d="M123 283v540q0 145 94 225t266 78q172 0 263 -78t92 -225v-155h-127v125q0 215 -224 215q-119 0 -176 -52t-57 -163v-480q0 -215 233 -215q103 0 163 54t61 161v109h127v-139q0 -139 -86 -218t-244 -85v-84h6q92 0 134 -37t42 -122t-47 -123t-170 -38h-100v82h108 q61 0 84 16t23 58v10q0 43 -24 61t-81 19h-61v162q-145 14 -222 91t-77 208z" />
<glyph unicode="&#xe8;" horiz-adv-x="952" d="M123 299v508q0 151 92 235t263 84t267 -84t97 -235v-311h-588v-170q0 -121 53 -176t168 -56q236 0 236 232v43h131v-70q0 -152 -96 -236q-96 -83 -268 -83q-171 0 -263 84t-92 235zM160 1579h180l211 -332h-96zM254 604h457v176q0 231 -236 232q-115 0 -168 -56t-53 -176 v-176z" />
<glyph unicode="&#xe9;" horiz-adv-x="952" d="M123 299v508q0 151 92 235t263 84t267 -84t97 -235v-311h-588v-170q0 -121 53 -176t168 -56q236 0 236 232v43h131v-70q0 -152 -96 -236q-96 -83 -268 -83q-171 0 -263 84t-92 235zM254 604h457v176q0 231 -236 232q-115 0 -168 -56t-53 -176v-176zM422 1247l194 332h181 l-279 -332h-96z" />
<glyph unicode="&#xea;" horiz-adv-x="952" d="M123 299v508q0 151 92 235t263 84t267 -84t97 -235v-311h-588v-170q0 -121 53 -176t168 -56q236 0 236 232v43h131v-70q0 -152 -96 -236q-96 -83 -268 -83q-171 0 -263 84t-92 235zM166 1247l260 291h104l263 -291h-131l-183 185l-184 -185h-129zM254 604h457v176 q0 231 -236 232q-115 0 -168 -56t-53 -176v-176z" />
<glyph unicode="&#xeb;" horiz-adv-x="952" d="M123 299v508q0 151 92 235t263 84t267 -84t97 -235v-311h-588v-170q0 -121 53 -176t168 -56q236 0 236 232v43h131v-70q0 -152 -96 -236q-96 -83 -268 -83q-171 0 -263 84t-92 235zM211 1247v197h151v-197h-151zM254 604h457v176q0 231 -236 232q-115 0 -168 -56 t-53 -176v-176zM596 1247v197h152v-197h-152z" />
<glyph unicode="&#xec;" horiz-adv-x="417" d="M-111 1559h181l211 -332h-97zM143 0v1106h131v-1106h-131z" />
<glyph unicode="&#xed;" horiz-adv-x="417" d="M143 0v1106h131v-1106h-131zM154 1227l194 332h180l-278 -332h-96z" />
<glyph unicode="&#xee;" horiz-adv-x="417" d="M-104 1227l260 291h104l262 -291h-131l-182 184l-184 -184h-129zM143 0v1106h131v-1106h-131z" />
<glyph unicode="&#xef;" horiz-adv-x="417" d="M-59 1227v196h151v-196h-151zM143 0v1106h131v-1106h-131zM326 1227v196h151v-196h-151z" />
<glyph unicode="&#xf0;" horiz-adv-x="944" d="M96 299v350q0 131 88 205t243 74t245 -90q-43 225 -152 397l-190 -145l-66 90l191 145q-59 74 -125 137l106 80q76 -70 129 -135l154 117l67 -86l-155 -119q199 -299 198 -772v-248q0 -152 -98 -236q-98 -83 -269 -83t-268 84t-98 235zM229 330q1 -109 61 -170t173 -62 q233 0 233 232v231q-4 131 -61 190q-58 58 -189 58q-217 0 -217 -195v-284z" />
<glyph unicode="&#xf1;" horiz-adv-x="985" d="M141 0v1114h101l20 -100q190 112 326 112q258 -1 260 -276v-850h-129v817q0 188 -156 189q-117 0 -291 -109v-897h-131zM258 1227q2 102 48 158q46 57 106 57t102 -28q41 -28 70 -56t47 -27q65 0 65 115h103q0 -104 -43 -160q-44 -56 -112 -57q-68 0 -128 56t-90 56 q-31 1 -50 -31t-20 -83h-98z" />
<glyph unicode="&#xf2;" horiz-adv-x="964" d="M123 283v540q0 145 93 225t266 78q173 0 267 -78q93 -80 93 -225v-540q0 -145 -93 -225t-267 -78q-174 0 -266 78q-93 78 -93 225zM164 1579h180l211 -332h-96zM254 313q0 -215 228 -215t229 215v480q-1 215 -229 215t-228 -215v-480z" />
<glyph unicode="&#xf3;" horiz-adv-x="964" d="M123 283v540q0 145 93 225t266 78q173 0 267 -78q93 -80 93 -225v-540q0 -145 -93 -225t-267 -78q-174 0 -266 78q-93 78 -93 225zM254 313q0 -215 228 -215t229 215v480q-1 215 -229 215t-228 -215v-480zM428 1247l195 332h180l-279 -332h-96z" />
<glyph unicode="&#xf4;" horiz-adv-x="964" d="M123 283v540q0 145 93 225t266 78q173 0 267 -78q93 -80 93 -225v-540q0 -145 -93 -225t-267 -78q-174 0 -266 78q-93 78 -93 225zM170 1247l260 291h105l262 -291h-131l-183 185l-184 -185h-129zM254 313q0 -215 228 -215t229 215v480q-1 215 -229 215t-228 -215v-480z " />
<glyph unicode="&#xf5;" horiz-adv-x="964" d="M123 283v540q0 145 93 225t266 78q173 0 267 -78q93 -80 93 -225v-540q0 -145 -93 -225t-267 -78q-174 0 -266 78q-93 78 -93 225zM242 1227q2 102 48 158q46 57 106 57t102 -28t70 -56t46 -27q66 0 66 115h102q0 -104 -43 -160t-111 -57q-68 0 -128 56t-90 56 q-31 0 -51 -31q-19 -32 -19 -83h-98zM254 313q0 -215 228 -215t229 215v480q-1 215 -229 215t-228 -215v-480z" />
<glyph unicode="&#xf6;" horiz-adv-x="964" d="M123 283v540q0 145 93 225t266 78q173 0 267 -78q93 -80 93 -225v-540q0 -145 -93 -225t-267 -78q-174 0 -266 78q-93 78 -93 225zM219 1247v197h152v-197h-152zM254 313q0 -215 228 -215t229 215v480q-1 215 -229 215t-228 -215v-480zM604 1247v197h152v-197h-152z" />
<glyph unicode="&#xf7;" horiz-adv-x="1028" d="M117 463v117h794v-117h-794zM444 0v209h144v-209h-144zM444 807v209h144v-209h-144z" />
<glyph unicode="&#xf8;" horiz-adv-x="964" d="M88 -45l84 151q-49 70 -49 177v540q0 145 93 225q94 80 252 78q158 0 249 -57l49 88h113l-88 -158q51 -74 51 -176v-540q0 -145 -93 -225t-251 -78q-158 0 -246 53l-43 -78h-121zM254 313q0 -39 4 -57l395 700q-57 51 -170 52q-229 0 -229 -215v-480zM315 145 q53 -47 168 -47q227 0 228 215v480q0 18 -4 55z" />
<glyph unicode="&#xf9;" horiz-adv-x="958" d="M137 272v834h131v-801q0 -205 154 -205q117 0 266 90v916h131v-1106h-102l-15 78q-176 -98 -308 -98q-255 0 -257 292zM158 1559h180l211 -332h-96z" />
<glyph unicode="&#xfa;" horiz-adv-x="958" d="M137 272v834h131v-801q0 -205 154 -205q117 0 266 90v916h131v-1106h-102l-15 78q-176 -98 -308 -98q-255 0 -257 292zM420 1227l194 332h181l-279 -332h-96z" />
<glyph unicode="&#xfb;" horiz-adv-x="958" d="M137 272v834h131v-801q0 -205 154 -205q117 0 266 90v916h131v-1106h-102l-15 78q-176 -98 -308 -98q-255 0 -257 292zM164 1227l260 291h104l263 -291h-132l-182 184l-184 -184h-129z" />
<glyph unicode="&#xfc;" horiz-adv-x="958" d="M137 272v834h131v-801q0 -205 154 -205q117 0 266 90v916h131v-1106h-102l-15 78q-176 -98 -308 -98q-255 0 -257 292zM209 1227v196h151v-196h-151zM594 1227v196h151v-196h-151z" />
<glyph unicode="&#xfd;" horiz-adv-x="907" d="M51 1106h142l270 -930l252 930h145l-354 -1190q-57 -186 -138 -244t-194 -59q-63 0 -96 10v115q28 -10 94 -10t121 44t88 167l16 61h-2zM424 1227l194 332h181l-279 -332h-96z" />
<glyph unicode="&#xfe;" horiz-adv-x="993" d="M141 -369v1844h138v-453q201 104 313 104q274 0 274 -286v-535q0 -319 -299 -319q-154 0 -288 94v-449h-138zM279 201q53 -41 131 -69t147 -28q178 0 178 220v497q0 187 -164 187q-96 0 -292 -105v-702z" />
<glyph unicode="&#xff;" horiz-adv-x="907" d="M51 1106h142l270 -930l252 930h145l-354 -1190q-57 -186 -138 -244t-194 -59q-63 0 -96 10v115q28 -10 94 -10t121 44t88 167l16 61h-2zM211 1227v196h151v-196h-151zM596 1227v196h152v-196h-152z" />
<glyph unicode="&#x152;" horiz-adv-x="1667" d="M143 319v836q0 162 115 251t316 89t300 -94v74h709v-121h-567v-529h444v-120h-444v-584h567v-121h-709v74q-100 -94 -300 -94t-316 89q-115 89 -115 250zM285 367q0 -139 70 -201q71 -62 223 -62t224 58t72 190v768q-2 130 -73 190t-223 60t-223 -61t-70 -201v-741z" />
<glyph unicode="&#x153;" horiz-adv-x="1542" d="M123 283v540q0 145 93 225q94 80 282 78q188 0 280 -110q92 110 276 110t279 -84q96 -84 97 -235v-311h-588v-183q2 -219 221 -219q236 0 235 232v43h132v-70q0 -152 -96 -236q-96 -83 -280 -83t-276 108q-92 -108 -280 -108t-282 78q-93 78 -93 225zM254 313 q0 -215 228 -215t229 215v480q-1 215 -229 215t-228 -215v-480zM842 604h456v176q1 232 -235 232q-219 0 -221 -219v-189z" />
<glyph unicode="&#x178;" horiz-adv-x="1060" d="M53 1475h150l325 -791l330 791h148l-404 -934v-541h-141v541zM262 1554v197h152v-197h-152zM647 1554v197h152v-197h-152z" />
<glyph unicode="&#x2c6;" horiz-adv-x="1105" d="M219 1126l260 291h105l262 -291h-131l-183 185l-184 -185h-129z" />
<glyph unicode="&#x2dc;" horiz-adv-x="884" d="M176 1176q2 102 48 158t106 56t102 -27q41 -27 70 -55t47 -28q65 0 65 115h103q0 -105 -43 -161q-44 -56 -112 -56t-128 56t-90 56q-31 0 -50 -32t-20 -82h-98z" />
<glyph unicode="&#x2000;" horiz-adv-x="1000" />
<glyph unicode="&#x2001;" horiz-adv-x="2001" />
<glyph unicode="&#x2002;" horiz-adv-x="1000" />
<glyph unicode="&#x2003;" horiz-adv-x="2001" />
<glyph unicode="&#x2004;" horiz-adv-x="667" />
<glyph unicode="&#x2005;" horiz-adv-x="500" />
<glyph unicode="&#x2006;" horiz-adv-x="333" />
<glyph unicode="&#x2007;" horiz-adv-x="333" />
<glyph unicode="&#x2008;" horiz-adv-x="250" />
<glyph unicode="&#x2009;" horiz-adv-x="400" />
<glyph unicode="&#x200a;" horiz-adv-x="111" />
<glyph unicode="&#x2010;" horiz-adv-x="888" d="M119 684v121h651v-121h-651z" />
<glyph unicode="&#x2011;" horiz-adv-x="888" d="M119 684v121h651v-121h-651z" />
<glyph unicode="&#x2012;" horiz-adv-x="888" d="M119 684v121h651v-121h-651z" />
<glyph unicode="&#x2013;" horiz-adv-x="925" d="M119 709v116h688v-116h-688z" />
<glyph unicode="&#x2014;" horiz-adv-x="1032" d="M119 709v116h794v-116h-794z" />
<glyph unicode="&#x2018;" horiz-adv-x="399" d="M102 1059l144 416h90l-74 -416h-160z" />
<glyph unicode="&#x2019;" horiz-adv-x="399" d="M63 1059l74 416h160l-143 -416h-91z" />
<glyph unicode="&#x201a;" horiz-adv-x="399" d="M63 -207l74 416h160l-143 -416h-91z" />
<glyph unicode="&#x201c;" horiz-adv-x="632" d="M102 1059l144 416h90l-74 -416h-160zM336 1059l143 416h90l-73 -416h-160z" />
<glyph unicode="&#x201d;" horiz-adv-x="632" d="M63 1059l74 416h160l-143 -416h-91zM297 1059l74 416h159l-143 -416h-90z" />
<glyph unicode="&#x201e;" horiz-adv-x="632" d="M63 -207l74 416h160l-143 -416h-91zM297 -207l74 416h159l-143 -416h-90z" />
<glyph unicode="&#x2022;" horiz-adv-x="589" d="M160 596q0 51 39 86t94 35t95 -35t40 -86t-40 -86t-95 -35t-94 35t-39 86z" />
<glyph unicode="&#x2026;" horiz-adv-x="1290" d="M127 0v209h143v-209h-143zM578 0v209h143v-209h-143zM1028 0v209h143v-209h-143z" />
<glyph unicode="&#x202f;" horiz-adv-x="400" />
<glyph unicode="&#x2039;" horiz-adv-x="546" d="M78 545v92l233 342h135l-253 -387l-3 -2h3l253 -387h-135z" />
<glyph unicode="&#x203a;" horiz-adv-x="546" d="M100 203l254 387h2l-2 2l-254 387h136l233 -342v-92l-233 -342h-136z" />
<glyph unicode="&#x205f;" horiz-adv-x="500" />
<glyph unicode="&#x20ac;" horiz-adv-x="1228" d="M78 565v109h172v117h-172v108h172v277q0 152 116 236t316 83q200 0 312 -84q114 -84 114 -235v-234h-131v203q0 111 -79 168t-216 57q-291 0 -291 -225v-246h232v-108h-232v-117h232v-109h-232v-235q0 -121 70 -173t221 -53q295 0 295 226v202h131v-233q0 -152 -115 -236 q-115 -83 -315 -83t-314 84t-114 235v266h-172z" />
<glyph unicode="&#x2122;" horiz-adv-x="1421" d="M61 1374v101h543v-101h-217v-762h-108v762h-218zM659 612v863h97l215 -500l213 493v7h98v-863h-108v578l-154 -338h-98l-154 338v-578h-109z" />
<glyph unicode="&#x25fc;" horiz-adv-x="1105" d="M0 0v1105h1105v-1105h-1105z" />
</font>
</defs>
</svg>
